<svg width="237" height="244" viewBox="0 0 237 244" fill="none" xmlns="http://www.w3.org/2000/svg">
<path d="M79.3943 0L236.333 119.635L44.227 196.156L25 78.8242L79.3943 0Z" fill="#FD612E"/>
<path d="M206.885 84.7486L180.351 84L178 110.201L203.191 110.95L198.824 151L213.939 148.006L222 86.9944L206.885 84.7486Z" stroke="white" stroke-width="1.36" stroke-miterlimit="10"/>
<path d="M0 82.621L133.055 40L188.44 177.572L26.2178 225.459L0 82.621Z" fill="#FCC75F"/>
<path d="M21.4411 109.912C23.3415 109.912 24.8822 108.364 24.8822 106.456C24.8822 104.547 23.3415 103 21.4411 103C19.5406 103 18 104.547 18 106.456C18 108.364 19.5406 109.912 21.4411 109.912Z" fill="black"/>
<path d="M193.441 124.912C195.342 124.912 196.882 123.364 196.882 121.456C196.882 119.547 195.342 118 193.441 118C191.541 118 190 119.547 190 121.456C190 123.364 191.541 124.912 193.441 124.912Z" fill="black"/>
<path d="M77.595 147.194C78.4759 147.194 79.19 146.479 79.19 145.597C79.19 144.715 78.4759 144 77.595 144C76.7141 144 76 144.715 76 145.597C76 146.479 76.7141 147.194 77.595 147.194Z" fill="black"/>
<path d="M186.595 106.194C187.476 106.194 188.19 105.479 188.19 104.597C188.19 103.715 187.476 103 186.595 103C185.714 103 185 103.715 185 104.597C185 105.479 185.714 106.194 186.595 106.194Z" fill="black"/>
<path d="M110.927 133L91 180.619L122.38 181L132 137.571L110.927 133Z" fill="#8964FE"/>
<path d="M69 94L95.0539 104.203L117.011 106.671L113.898 118.19L71.4579 111.937L69 94Z" stroke="white" stroke-width="1.36" stroke-miterlimit="10"/>
<path d="M151.845 68H94V79.4611H151.845V68Z" fill="#FD612E"/>
<path d="M0 166.822L18.4765 147L16.24 196.404L0 166.822Z" fill="#8964FE"/>
<path d="M164.073 133C164.073 133 135.614 164.596 166.084 175.747C196.553 186.898 191.758 208.117 177.065 210.13" stroke="#FD612E" stroke-width="1.28" stroke-miterlimit="10" stroke-linecap="round"/>
<path d="M3.02528 161.588L0 158.49C0.253653 158.239 25.4303 133.245 15.2501 115.265C10.2358 106.407 11.6557 96.391 19.3581 86.3021C24.957 78.967 31.8613 74.1998 32.1521 74L34.5958 77.5808L33.374 75.7904L34.5974 77.5793C34.5309 77.6257 27.9111 82.2071 22.7406 89.0125C16.1286 97.6982 14.8805 105.815 19.0178 113.124C21.8142 118.063 22.6571 123.755 21.5219 130.04C20.6418 134.911 18.5708 140.143 15.3646 145.592C9.98373 154.737 3.30677 161.314 3.02528 161.588Z" fill="#FD612E"/>
<path d="M132 85.3675L155.993 62L170.454 82.57L132 85.3675Z" fill="#8964FE"/>
<path d="M116.54 181H78V210.31H116.54V181Z" fill="#FD612E"/>
<path d="M108.339 196L126.503 204.331L113.432 222.519L108.339 214.869L114.45 207.729L108 202.63L108.339 196Z" stroke="white" stroke-width="1.28" stroke-miterlimit="10"/>
<path d="M18.991 196C18.991 196 10.0204 258.262 46.0577 239.057C82.095 219.852 94.159 208.39 118.906 225.737" stroke="#FD612E" stroke-width="1.28" stroke-miterlimit="10" stroke-linecap="round"/>
<path d="M80.595 45.1944C81.4759 45.1944 82.19 44.4793 82.19 43.5972C82.19 42.7151 81.4759 42 80.595 42C79.7141 42 79 42.7151 79 43.5972C79 44.4793 79.7141 45.1944 80.595 45.1944Z" fill="black"/>
<path d="M112.595 165.194C113.476 165.194 114.19 164.479 114.19 163.597C114.19 162.715 113.476 162 112.595 162C111.714 162 111 162.715 111 163.597C111 164.479 111.714 165.194 112.595 165.194Z" fill="black"/>
<path d="M123.441 109.912C125.342 109.912 126.882 108.364 126.882 106.456C126.882 104.547 125.342 103 123.441 103C121.541 103 120 104.547 120 106.456C120 108.364 121.541 109.912 123.441 109.912Z" fill="black"/>
<path d="M42.5 203C45.5376 203 48 200.761 48 198C48 195.239 45.5376 193 42.5 193C39.4624 193 37 195.239 37 198C37 200.761 39.4624 203 42.5 203Z" fill="black"/>
</svg>
