<svg width="200" height="249" viewBox="0 0 200 249" fill="none" xmlns="http://www.w3.org/2000/svg">
<path d="M22.4096 219.396L178.568 207.088L184.521 56.241L63.1996 42L0 147.664L22.4096 219.396Z" fill="#8964FE"/>
<path d="M44.7718 222.185C44.7718 222.185 186.471 222.829 185.322 223.215C184.173 223.6 128.842 71 128.842 71L35 78.7192L44.7718 222.185Z" fill="black"/>
<path d="M172.406 191L143 222.712L199.898 220.098L172.406 191Z" fill="#FCC75F"/>
<path d="M21 162C23.7614 162 26 159.761 26 157C26 154.239 23.7614 152 21 152C18.2386 152 16 154.239 16 157C16 159.761 18.2386 162 21 162Z" fill="black"/>
<path d="M9 106C10.6569 106 12 104.657 12 103C12 101.343 10.6569 100 9 100C7.34315 100 6 101.343 6 103C6 104.657 7.34315 106 9 106Z" fill="black"/>
<path d="M189.5 122C191.433 122 193 120.433 193 118.5C193 116.567 191.433 115 189.5 115C187.567 115 186 116.567 186 118.5C186 120.433 187.567 122 189.5 122Z" fill="black"/>
<path d="M63.5 33C64.8807 33 66 31.8807 66 30.5C66 29.1193 64.8807 28 63.5 28C62.1193 28 61 29.1193 61 30.5C61 31.8807 62.1193 33 63.5 33Z" fill="black"/>
<path d="M24 165C26.7614 165 29 162.761 29 160C29 157.239 26.7614 155 24 155C21.2386 155 19 157.239 19 160C19 162.761 21.2386 165 24 165Z" fill="#FD612E"/>
<path d="M135.002 89C135.002 89 134.422 113.539 154.577 102.358C174.732 91.178 187.202 84.0632 180.967 100.471C174.732 116.878 166.322 123.993 183.722 119.056C201.122 114.12 182.417 130.382 181.547 130.963" stroke="#FD612E" stroke-width="1.2" stroke-miterlimit="10" stroke-linecap="round"/>
<path d="M35 165L50.7307 152L52.8609 171.583L63.6757 173.722L62.2009 186.393L43.3569 188.532V171.254L35 165Z" stroke="white" stroke-width="1.36" stroke-miterlimit="10"/>
<path d="M62 110L88.0539 120.203L110.011 122.671L106.898 134.19L64.4579 127.937L62 110Z" stroke="white" stroke-width="1.36" stroke-miterlimit="10"/>
<path d="M66 115L92.0539 125.203L114.011 127.671L110.898 139.19L68.4579 132.937L66 115Z" stroke="white" stroke-width="1.36" stroke-miterlimit="10"/>
<path d="M71 122L97.0539 132.203L119.011 134.671L115.898 146.19L73.4579 139.937L71 122Z" stroke="#FD612E" stroke-width="1.36" stroke-miterlimit="10"/>
<path d="M76 128L102.054 138.203L124.011 140.671L120.898 152.19L78.4579 145.937L76 128Z" stroke="white" stroke-width="1.36" stroke-miterlimit="10"/>
<path d="M92 197.744L118.757 190L112.725 219.272L92 197.744Z" fill="#8964FE"/>
<path d="M80.5514 64C80.5514 64 24.2914 87.5224 43.7214 98.122C63.1514 108.722 65.6164 90.4264 53.2914 91.0072C40.9664 91.588 25.4514 124.403 34.7314 125.71C44.0114 127.017 44.3014 116.127 37.4864 116.127C30.6714 116.127 23.4214 119.321 26.9014 130.792" stroke="#FD612E" stroke-width="1.2" stroke-miterlimit="10" stroke-linecap="round"/>
<path d="M159.318 71H100V95.0077H159.318V71Z" fill="black"/>
<path d="M157.318 73H98V97.0077H157.318V73Z" fill="#FD612E"/>
<path d="M52 1C52 1 62.5173 41.3172 90.947 29.798C119.377 18.2788 110.174 4.94944 96.2057 8.07608C82.2373 11.2027 78.2933 73.2418 108.531 66.4949C138.768 59.7479 134.249 37.2723 114.161 43.2442C94.0726 49.2161 95.384 79.8242 117.405 82.6218" stroke="#FD612E" stroke-width="1.36" stroke-miterlimit="10" stroke-linecap="round"/>
<path d="M51.1105 205C51.1105 205 27.2822 242.849 56.6979 231.165C86.1135 219.481 75.1032 207.304 66.5579 211.089C58.0125 214.874 50.9462 250.912 70.6662 248.115" stroke="#FD612E" stroke-width="1.36" stroke-miterlimit="10" stroke-linecap="round"/>
</svg>
