<svg width="221" height="261" viewBox="0 0 221 261" fill="none" xmlns="http://www.w3.org/2000/svg">
<path d="M26.991 165C26.991 165 18.0204 227.262 54.0577 208.057C90.095 188.852 102.159 177.39 126.906 194.737" stroke="#FD612E" stroke-width="1.28" stroke-miterlimit="10" stroke-linecap="round"/>
<path d="M52.1387 0L26 212.495L201.547 76.8205L52.1387 0Z" fill="#FCC75F"/>
<path d="M207.615 90L195 126.3L214.865 126.59L220.955 93.4848L207.615 90Z" fill="#8964FE"/>
<path d="M177.111 68C177.111 68 153.282 105.849 182.698 94.165C212.114 82.4813 201.103 70.3038 192.558 74.0887C184.013 77.8736 176.946 113.912 196.666 111.115" stroke="black" stroke-width="1.36" stroke-miterlimit="10" stroke-linecap="round"/>
<path d="M214.883 140.5C214.883 140.5 169.396 127.93 174.657 173.756C179.917 219.581 120.852 232.072 124.535 248.841" stroke="#FCC75F" stroke-width="1.44" stroke-miterlimit="10" stroke-linecap="round"/>
<path d="M36.2613 186.4L10 59.7615L111.467 11L195.344 141.2L135.177 211.919L36.2613 186.4Z" fill="#8964FE"/>
<path d="M35.6151 149.043L0 128.307L16.0668 68L52.9981 83.7978L35.6151 149.043Z" fill="#FCC75F"/>
<path d="M127 113.987L171.643 106V125.207L140.41 131.326L141.938 119.089L127 122.657V113.987Z" stroke="white" stroke-width="1.28" stroke-miterlimit="10"/>
<path d="M84 196C86.2091 196 88 194.209 88 192C88 189.791 86.2091 188 84 188C81.7909 188 80 189.791 80 192C80 194.209 81.7909 196 84 196Z" fill="#1E1E1E"/>
<path d="M92 134C94.2091 134 96 135.791 96 138C96 140.209 94.2091 142 92 142C89.7909 142 88 140.209 88 138C88 135.791 89.7909 134 92 134Z" fill="#1E1E1E"/>
<path d="M182.856 211.717C183.881 211.717 184.712 210.885 184.712 209.859C184.712 208.832 183.881 208 182.856 208C181.831 208 181 208.832 181 209.859C181 210.885 181.831 211.717 182.856 211.717Z" fill="#1E1E1E"/>
<path d="M59.856 89.7171C60.881 89.7171 61.712 88.885 61.712 87.8586C61.712 86.8321 60.881 86 59.856 86C58.831 86 58 86.8321 58 87.8586C58 88.885 58.831 89.7171 59.856 89.7171Z" fill="#1E1E1E"/>
<path d="M25.856 221.717C26.881 221.717 27.712 220.885 27.712 219.859C27.712 218.832 26.881 218 25.856 218C24.831 218 24 218.832 24 219.859C24 220.885 24.831 221.717 25.856 221.717Z" fill="#1E1E1E"/>
<path d="M163 78C165.761 78 168 75.7614 168 73C168 70.2386 165.761 68 163 68C160.239 68 158 70.2386 158 73C158 75.7614 160.239 78 163 78Z" fill="#1E1E1E"/>
<path d="M142.085 51.7551H84.2397V63.2162H142.085V51.7551Z" fill="#FD612E"/>
<path d="M99.4726 113.704L73.4207 106.234L59.6297 154.329L85.6817 161.799L99.4726 113.704Z" fill="#FD612E"/>
<path d="M125.498 186L122 182.605C122.293 182.33 151.401 154.935 139.632 135.228C133.834 125.52 135.476 114.542 144.381 103.484C150.854 95.4441 158.837 90.219 159.173 90L161.998 93.9247L160.586 91.9624L162 93.923C161.923 93.974 154.27 98.9953 148.292 106.454C140.647 115.974 139.204 124.871 143.988 132.882C147.221 138.295 148.195 144.534 146.883 151.423C145.865 156.761 143.471 162.496 139.764 168.468C133.543 178.492 125.823 185.7 125.498 186Z" fill="#FD612E"/>
</svg>
