<svg id="Capa_1" data-name="Capa 1" xmlns="http://www.w3.org/2000/svg" viewBox="0 0 1511 1567"><title>Mesa de trabajo 44</title><polygon points="271 270 1400 767 1321.6 1541 37.94 549.42 271 270" fill="#fcc75f"/><polygon points="207 731.91 841.27 121.2 1386 781.86 964.73 1306.8 295.59 1254.02 207 731.91"/><path d="M1167,354l-38,67.76-50,352.24-178,366-16-219,203.58-514.73L1085,357l11,17,9-40,4,29,16-27-2,30,23-25c-.23.8-9,30.94-6,28S1167,354,1167,354Z" fill="#f6f4e7"/><circle cx="129" cy="787" r="25"/><circle cx="194" cy="1100" r="17"/><circle cx="508" cy="1433" r="11"/><circle cx="275" cy="509" r="11"/><circle cx="1332" cy="558" r="11"/><circle cx="1106" cy="1422" r="11"/><polygon points="152 1323.39 498 1137 376 1485 152 1323.39" fill="#8964fe"/><polygon points="1151 928 1486 921 1488 1081 1110 1081 1151 928" fill="#8964fe"/><polygon points="115 573 96 690 272 716 265 620 115 573" fill="#fd612e"/><polygon points="336 1000 443 960 479 1058 351 1126 338 1075 402 1056 336 1000" fill="none" stroke="#fff" stroke-miterlimit="10" stroke-width="4"/><polygon points="997 1227 1048 1131 1103 1150 1056 1227 1106 1240 1063 1297 997 1227" fill="none" stroke="#fff" stroke-miterlimit="10" stroke-width="4"/><path d="M1471,615s-327,111-218,137,188-9,111-32-208,154-134,137,137-65,32-54-159,51-148,92" fill="none" stroke="#fff" stroke-miterlimit="10" stroke-width="4"/><path d="M261,774S98,901,186,925s172,7,105,52-58,215,19,192" fill="none" stroke="#fd612e" stroke-miterlimit="10" stroke-width="4"/><path d="M610,892l-11,219L416,745,366.33,395.46l-.65-.19L334,317l25,27-8-42,20,29s-3-41,0-41,21,42,21,42l6-40,11,54,18-30-10.23,87.43Z" fill="#f6f4e7"/><path d="M941,249a181.94,181.94,0,0,1-93,158.79V503H670V407.79A182,182,0,1,1,941,249Z" fill="#fcc75f"/><polyline points="731.39 505.76 663 281 723 350 748 264 781 348 836 275 796 510" fill="none" stroke="#000" stroke-miterlimit="10" stroke-width="4"/><rect x="642" y="496" width="233" height="49" fill="#fd612e"/><path d="M692,560H825a0,0,0,0,1,0,0v0a49,49,0,0,1-49,49H741a49,49,0,0,1-49-49v0A0,0,0,0,1,692,560Z" fill="#fd612e"/><circle cx="462" cy="191" r="11"/><circle cx="1070" cy="285" r="11"/><path d="M1039,61s-149,191-23,147,204-80,162-12-28,122,92,156-128,136-49,164" fill="none" stroke="#fd612e" stroke-miterlimit="10" stroke-width="4"/><polygon points="475 275 545 508 530 247 475 275" fill="#fd612e"/><polygon points="261 377 192 457 218 482 289 439 321 465 338 431 261 377" fill="none" stroke="#fff" stroke-miterlimit="10" stroke-width="4"/><polygon points="975 467 911 628 1027 504 975 467" fill="#fd612e"/><path d="M919.05,1107.17c1.6,123.18,4.59,249.14,4.59,249.14l-330.73-3.6-1.27-191.12-1.4,5L398,735l139-65,96.47,198.48,74.62.85,115.25,1.31,9.56.11s23.75-.08,46.82.26L964,705l145,58Z" fill="#8964fe"/><path d="M934.89,1268.08v2.56a11.47,11.47,0,0,1-11.47,11.47h-1.2L926,1537l-343-2,3.55-219.27.54-33.62h-.23a11.64,11.64,0,0,1-1.58-.11,11.47,11.47,0,0,1-9.88-11.36v-2.56a11.47,11.47,0,0,1,11.46-11.47H923.42A11.48,11.48,0,0,1,934.89,1268.08Z" fill="#fcc75f"/><line x1="751" y1="1535" x2="752" y2="1388" fill="none" stroke="#000" stroke-miterlimit="10" stroke-width="4"/><path d="M586.55,1315.73l.54-33.62h-.23a11.64,11.64,0,0,1-1.58-.11H922.05Z"/><polygon points="806.34 869.32 762.24 993.05 691.09 868 728.46 868.43 735.77 821.39 738.23 805.57 738.28 805.27 755.1 804.39 755.26 805.31 756.44 812.15 766.22 868.86 806.34 869.32" fill="#f6f4e7"/><polygon points="756.44 812.15 735.77 821.39 738.23 805.57 755.26 805.31 756.44 812.15"/><circle cx="747.33" cy="774.26" r="34.14" fill="#f6f4e7"/><path d="M927,872a66,66,0,1,1-113.69-45.63A68,68,0,0,1,770,763c0-.26,0-.52,0-.78a60.27,60.27,0,0,1-43-.38V762a66,66,0,0,1-52.31,64.57,66,66,0,1,1-69.38-29.14,66,66,0,0,1,83.81-95.15,60,60,0,0,1,119.71-.72A68,68,0,0,1,886.18,811,66,66,0,0,1,927,872Z" fill="#fcc75f"/></svg>