<svg width="130" height="130" viewBox="0 0 130 130" fill="none" xmlns="http://www.w3.org/2000/svg">
<g clip-path="url(#clip0_304_265)">
<path fill-rule="evenodd" clip-rule="evenodd" d="M5.84595 4.08198C66.9712 13.0122 96.6615 67.8577 103.412 125.114C103.53 126.097 104.423 126.804 105.406 126.686C106.389 126.568 107.096 125.676 106.978 124.692C100.042 65.8325 69.2003 9.70933 6.36241 0.529892C5.38376 0.384903 4.47307 1.06457 4.32808 2.04776C4.1831 3.02641 4.86276 3.937 5.84595 4.08198Z" fill="black"/>
<path fill-rule="evenodd" clip-rule="evenodd" d="M105.07 123.828C103.207 121.282 100.906 118.061 100.634 117.703C93.2668 108.002 84.7897 99.9645 74.8446 92.8873C74.0381 92.3119 72.9144 92.5023 72.339 93.3088C71.7636 94.1152 71.954 95.2388 72.7605 95.8142C82.4066 102.674 90.63 110.467 97.7751 119.877C98.1919 120.426 103.362 127.67 104.517 129.057C104.988 129.628 105.432 129.804 105.541 129.836C106.112 130.026 106.56 129.913 106.886 129.759C107.253 129.582 107.788 129.143 108.06 128.291C108.341 127.399 108.468 125.414 108.54 124.916C109.655 117.399 110.244 108.913 112.382 101.188C114.421 93.8206 117.874 87.1378 124.792 82.8516C125.635 82.3306 125.893 81.2205 125.372 80.3778C124.851 79.5351 123.741 79.2767 122.898 79.7977C115.164 84.5913 111.2 91.9948 108.921 100.227C106.796 107.907 106.152 116.316 105.07 123.828Z" fill="black"/>
</g>
<defs>
<clipPath id="clip0_304_265">
<rect width="130" height="130" fill="white" transform="translate(0 129.999) rotate(-90)"/>
</clipPath>
</defs>
</svg>
