<svg width="74" height="69" viewBox="0 0 74 69" fill="none" xmlns="http://www.w3.org/2000/svg">
<path d="M38.7668 55.5336C39.7426 55.5336 40.5336 54.7426 40.5336 53.7668C40.5336 52.791 39.7426 52 38.7668 52C37.791 52 37 52.791 37 53.7668C37 54.7426 37.791 55.5336 38.7668 55.5336Z" stroke="#1F1400" stroke-width="1.23" stroke-miterlimit="10"/>
<path d="M48.0402 67.1239C48.0402 67.1239 -13.4463 77.7643 4.17413 24.8827C20.9284 -25.4018 85.0448 14.9154 71.0063 43.804C62.0743 62.1965 48.0402 67.1239 48.0402 67.1239Z" fill="#E0B154" stroke="#1F1304" stroke-width="1.26" stroke-miterlimit="10" stroke-linecap="round"/>
<path d="M20.6735 40L22.1429 45.1333L17 47.0889H23.3673V51L25.0816 45.3778L29 43.9111H24.102L20.6735 40Z" fill="white"/>
<path d="M45.6955 20.6103L51.173 25.6542L50.4239 29.9552L53.5902 27.2983L57.2068 31.6085L52.8604 24.6973L53.4527 21.4461L51.017 23.4898L45.6955 20.6103Z" fill="white"/>
<path d="M40.899 47.7979C42.5 47.7979 43.7979 46.5 43.7979 44.899C43.7979 43.2979 42.5 42 40.899 42C39.2979 42 38 43.2979 38 44.899C38 46.5 39.2979 47.7979 40.899 47.7979Z" stroke="#1F1400" stroke-width="1.11" stroke-miterlimit="10"/>
<path d="M62.251 43.8077C61.8493 44.5323 60.349 44.4685 58.8999 43.6652C57.4508 42.8619 56.6016 41.6234 57.0033 40.8988C57.4049 40.1743 58.9052 40.2381 60.3543 41.0413C61.8034 41.8446 62.6526 43.0831 62.251 43.8077Z" stroke="#1F1400" stroke-width="1.11" stroke-miterlimit="10"/>
<path d="M29.666 11.8585C30.193 12.4978 29.5837 13.8703 28.3053 14.9242C27.0268 15.9781 25.5632 16.3142 25.0363 15.675C24.5093 15.0358 25.1186 13.6632 26.397 12.6093C27.6755 11.5555 29.1391 11.2193 29.666 11.8585Z" stroke="#1F1400" stroke-width="1.11" stroke-miterlimit="10"/>
<path d="M31.899 33.7979C33.5 33.7979 34.7979 32.5 34.7979 30.899C34.7979 29.2979 33.5 28 31.899 28C30.2979 28 29 29.2979 29 30.899C29 32.5 30.2979 33.7979 31.899 33.7979Z" stroke="#1F1400" stroke-width="1.11" stroke-miterlimit="10"/>
<path d="M43 22C44.1046 22 45 18.866 45 15C45 11.134 44.1046 8 43 8C41.8954 8 41 11.134 41 15C41 18.866 41.8954 22 43 22Z" stroke="#1F1400" stroke-width="1.11" stroke-miterlimit="10"/>
<path d="M17 22.0316C17 22.0316 14.1212 20.8458 12 33" stroke="white" stroke-width="1.23" stroke-miterlimit="10" stroke-linecap="round"/>
<path d="M16 25.0172C16 25.0172 14.8485 24.3705 14 31" stroke="white" stroke-width="1.23" stroke-miterlimit="10" stroke-linecap="round"/>
<path d="M36 54L43.6199 60.1313" stroke="#1F1304" stroke-width="1.11" stroke-miterlimit="10"/>
<path d="M53.1447 35.9109L54.4757 26.2215" stroke="#1F1304" stroke-width="1.11" stroke-miterlimit="10"/>
</svg>
