<svg width="185" height="233" viewBox="0 0 185 233" fill="none" xmlns="http://www.w3.org/2000/svg">
<path d="M34.6907 0.220459L8.552 212.716L184.099 77.0409L34.6907 0.220459Z" fill="#FCC75F"/>
<path d="M24.3636 198.871C24.3636 198.871 166.063 199.515 164.914 199.901C163.765 200.287 108.434 47.6865 108.434 47.6865L14.5918 55.4057L24.3636 198.871Z" fill="black"/>
<path d="M74.4291 115.33L38.0129 124.998L38.0964 124.622C38.995 120.581 43.3705 100.942 45.8699 90.4134C40.2695 88.5347 24.3558 82.1165 37.0106 73.3239C51.9684 62.9299 63.2854 68.4019 63.4447 78.3591C66.586 78.7943 69.6515 80.4871 72.0519 84.3994C80.1997 97.6525 74.4291 115.33 74.4291 115.33Z" fill="#FD612E"/>
<path d="M38.013 124.998L37.9387 125.364V125.023L38.013 124.998Z" fill="#FD612E"/>
<path d="M64.4438 115.524L55.634 115.897L57.2874 104.215L57.8922 99.9353L61.4974 99.6968L61.7635 101.128L64.4438 115.524Z" fill="#F6F4E7"/>
<path d="M61.7634 101.128L57.2874 104.216L57.8921 99.9368L61.4974 99.6968L61.7634 101.128Z" fill="black"/>
<path d="M60.5634 100.471C64.6072 100.471 67.8853 97.1885 67.8853 93.1391C67.8853 89.0898 64.6072 85.8071 60.5634 85.8071C56.5196 85.8071 53.2415 89.0898 53.2415 93.1391C53.2415 97.1885 56.5196 100.471 60.5634 100.471Z" fill="#F6F4E7"/>
<path d="M70.5254 91.194C65.5142 94.654 60.6778 93.3623 57.1375 91.2513C55.3248 93.4754 52.4897 96.3004 49.4753 96.8022C49.4753 96.8022 47.412 89.0582 52.6939 87.7324C52.2786 87.3193 51.8842 86.8856 51.5122 86.433C55.7563 80.9936 65.6024 85.0731 65.6024 85.0731L70.5254 91.194Z" fill="#FD612E"/>
<path d="M86.5984 166.202L85.8003 164.963L91.4751 223.007L29.3826 222.4L30.9292 119.156L49.1381 115.916L48.2952 110.34L56.6534 110.777L58.8187 114.193L64.9961 113.094L65.8777 110.345L73.5971 108.625L73.4425 111.593L80.4643 110.343L80.9283 115.079C84.2475 122.32 91.6081 140.696 91.6081 140.696L134.296 139.303L131.914 153.285L86.5984 166.202Z" fill="#8964FE"/>
<path d="M30.4064 149.359L46.0803 195.564L87.8867 183.29L29.2773 210.083L30.4064 149.359Z" fill="black"/>
<path d="M53.7146 137.429L53.7548 137.584L59.9956 161.399L72.0287 159.905C72.0287 159.905 61.8671 156.804 53.7146 137.429Z" fill="black"/>
<path d="M66.7808 55.0091L111.424 47.022V66.2286L80.1904 72.3479L81.7185 60.1109L66.7808 63.6793V55.0091Z" stroke="white" stroke-width="1.28" stroke-miterlimit="10"/>
<path d="M94.5436 93.6394L112.708 101.97L99.6367 120.158L94.5436 112.508L100.654 105.368L94.2048 100.27L94.5436 93.6394Z" stroke="white" stroke-width="1.28" stroke-miterlimit="10"/>
<path d="M81.4727 120.492L85.4414 159.578L110.168 158.353L110.635 159.027L113.107 158.663L122.543 147.838L88.5146 153.552L81.4727 120.492Z" fill="black"/>
<path d="M9.67787 113.826L6.65259 110.729C6.90624 110.478 32.0829 85.4835 21.9027 67.5034C16.8884 58.6459 18.3083 48.6298 26.0107 38.5409C31.6096 31.2058 38.5139 26.4386 38.8047 26.2388L41.2484 29.8196L40.0266 28.0292L41.25 29.818C41.1835 29.8645 34.5637 34.4459 29.3932 41.2513C22.7812 49.937 21.5331 58.0542 25.6704 65.363C28.4668 70.3021 29.3097 75.994 28.1745 82.279C27.2944 87.15 25.2234 92.3818 22.0172 97.8305C16.6363 106.976 9.95936 113.552 9.67787 113.826Z" fill="#FD612E"/>
<path d="M133.213 32.4355C133.213 32.4355 104.755 64.0311 135.224 75.1824C165.693 86.3338 160.899 107.552 146.205 109.566" stroke="#FD612E" stroke-width="1.28" stroke-miterlimit="10" stroke-linecap="round"/>
<path d="M12.1866 184.76C12.1866 184.76 3.21593 247.022 39.2533 227.817C75.2906 208.612 87.3546 197.15 112.101 214.497" stroke="#FD612E" stroke-width="1.28" stroke-miterlimit="10" stroke-linecap="round"/>
<path d="M62.5306 30.8868C63.5556 30.8868 64.3866 30.0547 64.3866 29.0282C64.3866 28.0018 63.5556 27.1697 62.5306 27.1697C61.5055 27.1697 60.6746 28.0018 60.6746 29.0282C60.6746 30.0547 61.5055 30.8868 62.5306 30.8868Z" fill="#1E1E1E"/>
<path d="M150.381 63.5665C151.406 63.5665 152.237 62.7344 152.237 61.7079C152.237 60.6815 151.406 59.8494 150.381 59.8494C149.356 59.8494 148.525 60.6815 148.525 61.7079C148.525 62.7344 149.356 63.5665 150.381 63.5665Z" fill="#1E1E1E"/>
<path d="M110.323 35.5332C111.518 35.5332 112.488 34.5624 112.488 33.3649C112.488 32.1673 111.518 31.1965 110.323 31.1965C109.127 31.1965 108.157 32.1673 108.157 33.3649C108.157 34.5624 109.127 35.5332 110.323 35.5332Z" fill="#1E1E1E"/>
<path d="M72.4292 20.2001L99.1865 12.4561L93.1545 41.7284L72.4292 20.2001Z" fill="#8964FE"/>
<path d="M0.974854 136.67L19.4513 116.848L17.2149 166.252L0.974854 136.67Z" fill="#8964FE"/>
<path d="M176.211 79.8289H118.365V91.29H176.211V79.8289Z" fill="black"/>
<path d="M174.973 79.0544H117.128V90.5156H174.973V79.0544Z" fill="#FD612E"/>
<path d="M139.344 120.111L140.302 116.52L169.62 139.259L165.058 156.386L129.939 147.003L139.344 120.111Z" fill="#FCC75F"/>
<path d="M136.952 120.386L137.461 118.485L168.239 138.875L159.655 174.267L132.595 167.678L132.708 131.803L136.952 120.386Z" fill="#8964FE"/>
<path d="M134.741 121.767L135.338 119.521L167.085 138.643L155.42 178.746L122.167 170.183C122.167 170.183 134.82 121.467 134.741 121.767Z" fill="black"/>
<path d="M131.832 123.073L132.469 120.678L135.6 122.316L166.586 138.51L160.693 160.628L123.811 150.776L131.832 123.073Z" fill="#8964FE"/>
<path d="M149.029 203.327L113.414 182.592L129.481 122.284L166.412 138.082L149.029 203.327Z" fill="#FCC75F"/>
<path d="M166.483 137.962L148.994 203.313L152.298 204.2L169.787 138.849L166.483 137.962Z" fill="#FD612E"/>
<path d="M130.391 160.882L145.413 152.565L128.4 157.747L142.311 147.737L126.15 156.312L135.396 144.491L120.411 154.335L125.171 144.861L113.125 158.677L106.952 159.618C109.091 163.196 110.606 167.053 111.926 171L121.641 167.5L146.739 159.942L130.391 160.882Z" fill="#F6F4E7"/>
<path d="M38.3022 112.961C34.1788 113.707 29.364 117.734 27.5033 119.86C26.0216 121.553 24.7503 123.475 24.1007 125.628C22.3266 131.478 26.8305 139.275 28.7128 144.7C29.5913 147.047 30.4142 149.625 31.0823 151.533L33.7488 159.22C35.3712 163.896 36.9504 168.584 38.5543 173.268C38.9997 174.57 46.0046 195.53 46.1608 195.484L119.782 173.858L110.193 158.402L61.0737 160.616C59.2487 160.699 55.8615 145.518 55.2969 143.769C52.9254 136.438 50.293 129.198 47.3997 122.049C45.8514 118.25 43.4974 112.02 38.3022 112.961Z" fill="#8964FE"/>
</svg>
