<svg width="79" height="166" viewBox="0 0 79 166" fill="none" xmlns="http://www.w3.org/2000/svg">
<path d="M34.3195 24.1463C34.5702 29.1861 36.44 35.887 45.3355 35.5507C52.938 35.2608 54.7962 28.9875 55.0745 24.0564" stroke="#1F1304" stroke-width="1.11" stroke-miterlimit="10" stroke-linecap="round"/>
<path d="M44.3687 25.2146L46.6574 28.1759L44.4846 28.2585" stroke="#1F1304" stroke-width="1.11" stroke-miterlimit="10"/>
<path d="M39.739 29.3093C41.5802 29.2356 43.0507 28.6243 43.0235 27.9439C42.9963 27.2634 41.4816 26.7715 39.6404 26.8452C37.7992 26.9188 36.3287 27.5301 36.3559 28.2106C36.3831 28.891 37.8978 29.3829 39.739 29.3093Z" fill="#E0B154"/>
<path d="M50.6782 28.9687C52.5194 28.895 53.9899 28.2837 53.9627 27.6033C53.9355 26.9228 52.4208 26.4309 50.5796 26.5046C48.7384 26.5782 47.2679 27.1895 47.2951 27.87C47.3223 28.5504 48.837 29.0423 50.6782 28.9687Z" fill="#E0B154"/>
<path d="M36.295 24.4348C36.295 24.4348 39.9303 28.5035 42.9626 24.1826" stroke="#1F1304" stroke-width="1.11" stroke-miterlimit="10" stroke-linecap="round"/>
<path d="M46.7183 24.0391C46.7183 24.0391 49.8593 28.4889 52.8872 24.1681" stroke="#1F1304" stroke-width="1.11" stroke-miterlimit="10" stroke-linecap="round"/>
<path d="M44.1382 30.5922C44.1382 30.5922 45.8515 33.7187 46.7472 30.4937" stroke="#1F1304" stroke-width="1.11" stroke-miterlimit="10" stroke-linecap="round"/>
<path d="M43.3076 35.4856L43.4642 39.6108" stroke="#1F1304" stroke-width="1.11" stroke-miterlimit="10"/>
<path d="M47.5778 35.2629L47.7372 39.4476" stroke="#1F1304" stroke-width="1.11" stroke-miterlimit="10"/>
<path d="M33.5962 24.1738L57.672 24.1317C57.672 24.1317 55.3861 9.71379 45.1514 11.4068C34.9167 13.0998 34.6818 14.5594 33.5962 24.1738Z" stroke="#1F1304" stroke-width="1.11" stroke-miterlimit="10" stroke-linecap="round"/>
<path d="M35.4791 24.1029C35.4791 24.1029 33.6991 18.2441 38.2737 13.1289" stroke="#1F1304" stroke-width="1.11" stroke-miterlimit="10" stroke-linecap="round"/>
<path d="M37.6518 24.0201C37.6518 24.0201 36.2386 17.5061 40.1826 12.4446" stroke="#1F1304" stroke-width="1.11" stroke-miterlimit="10" stroke-linecap="round"/>
<path d="M39.9797 24.223C39.9797 24.223 38.1316 17.4511 41.8408 12.03" stroke="#1F1304" stroke-width="1.11" stroke-miterlimit="10" stroke-linecap="round"/>
<path d="M42.1525 24.1404C42.1525 24.1404 39.8609 17.2641 43.2845 11.9126" stroke="#1F1304" stroke-width="1.11" stroke-miterlimit="10" stroke-linecap="round"/>
<path d="M44.7107 24.155C44.7107 24.155 41.5827 16.7627 45.1456 11.262" stroke="#1F1304" stroke-width="1.11" stroke-miterlimit="10" stroke-linecap="round"/>
<path d="M46.3052 24.1521C46.3052 24.1521 44.2962 15.6451 47.1749 11.1851" stroke="#1F1304" stroke-width="1.11" stroke-miterlimit="10" stroke-linecap="round"/>
<path d="M48.3866 24.0493C48.3866 24.0493 46.0834 16.3279 49.0113 11.5635" stroke="#1F1304" stroke-width="1.11" stroke-miterlimit="10" stroke-linecap="round"/>
<path d="M50.0956 24.1289C50.0956 24.1289 47.2053 15.7133 50.9189 12.365" stroke="#1F1304" stroke-width="1.11" stroke-miterlimit="10" stroke-linecap="round"/>
<path d="M51.5783 24.0724C51.5783 24.0724 49.5317 16.0177 52.3335 13.3782" stroke="#1F1304" stroke-width="1.11" stroke-miterlimit="10" stroke-linecap="round"/>
<path d="M53.4612 24.0014C53.4612 24.0014 51.2537 17.657 53.725 14.8306" stroke="#1F1304" stroke-width="1.11" stroke-miterlimit="10" stroke-linecap="round"/>
<path d="M54.7469 24.1377C54.7469 24.1377 53.322 17.9166 55.202 17.0469" stroke="#1F1304" stroke-width="1.11" stroke-miterlimit="10" stroke-linecap="round"/>
<path d="M56.1601 24.0839C56.1601 24.0839 54.4773 20.1964 56.3355 19.4702" stroke="#1F1304" stroke-width="1.11" stroke-miterlimit="10" stroke-linecap="round"/>
<path d="M1.07288 62.6646C1.07288 62.6646 20.3799 33.4592 33.8107 22.3083" stroke="#1F1304" stroke-width="1.11" stroke-miterlimit="10" stroke-linecap="round"/>
<path d="M1.50769 66.1608C1.50769 66.1608 19.3246 40.6501 34.3499 24.5928" stroke="#1F1304" stroke-width="1.11" stroke-miterlimit="10" stroke-linecap="round"/>
<path d="M2.44836 68.003C2.44836 68.003 23.8296 39.8093 35.0384 28.6121" stroke="#1F1304" stroke-width="1.11" stroke-miterlimit="10" stroke-linecap="round"/>
<path d="M3.9718 68.922C3.9718 68.922 29.8493 36.5842 36.44 31.656" stroke="#1F1304" stroke-width="1.11" stroke-miterlimit="10" stroke-linecap="round"/>
<path d="M5.65613 70.2875C5.65613 70.2875 31.3379 38.3759 37.8896 33.5303" stroke="#1F1304" stroke-width="1.11" stroke-miterlimit="10" stroke-linecap="round"/>
<path d="M8.11292 71.6614C8.11292 71.6614 30.1797 42.6516 39.8898 34.6157" stroke="#1F1304" stroke-width="1.11" stroke-miterlimit="10" stroke-linecap="round"/>
<path d="M10.3408 72.9008C10.3408 72.9008 31.7626 44.3317 41.5683 35.2043" stroke="#1F1304" stroke-width="1.11" stroke-miterlimit="10" stroke-linecap="round"/>
<path d="M12.8876 73.9807C12.8876 73.9807 33.7441 44.5056 40.6827 38.0613" stroke="#1F1304" stroke-width="1.11" stroke-miterlimit="10" stroke-linecap="round"/>
<path d="M15.04 75.1867C15.04 75.1867 28.8202 54.3244 36.5271 46.0059" stroke="#1F1304" stroke-width="1.11" stroke-miterlimit="10" stroke-linecap="round"/>
<path d="M16.6475 75.9172C16.6475 75.9172 29.1361 56.4812 34.0165 51.5747" stroke="#1F1304" stroke-width="1.11" stroke-miterlimit="10" stroke-linecap="round"/>
<path d="M17.8694 76.3795C17.8694 76.3795 29.5753 59.1815 32.467 55.5071" stroke="#1F1304" stroke-width="1.11" stroke-miterlimit="10" stroke-linecap="round"/>
<path d="M19.3551 76.8173C19.3551 76.8173 27.4388 64.4445 30.8393 60.4802" stroke="#1F1304" stroke-width="1.11" stroke-miterlimit="10" stroke-linecap="round"/>
<path d="M21.1191 77.0812C21.1191 77.0812 26.4199 67.3842 30.0175 63.8503" stroke="#1F1304" stroke-width="1.11" stroke-miterlimit="10" stroke-linecap="round"/>
<path d="M22.8033 77.4681C22.8033 77.4681 26.9764 69.9555 29.526 67.113" stroke="#1F1304" stroke-width="1.11" stroke-miterlimit="10" stroke-linecap="round"/>
<path d="M24.5398 77.2536C24.5398 77.2536 27.0532 72.0964 29.4347 69.6033" stroke="#1F1304" stroke-width="1.11" stroke-miterlimit="10" stroke-linecap="round"/>
<path d="M26.2256 76.7478C26.2256 76.7478 27.891 73.414 29.3811 71.408" stroke="#1F1304" stroke-width="1.11" stroke-miterlimit="10" stroke-linecap="round"/>
<path d="M33.8846 19.6412C33.8846 19.6412 9.38848 10.3037 20.8756 8.74259C32.3627 7.18151 34.231 19.3238 34.231 19.3238C34.231 19.3238 -9.61848 59.2858 3.46158 68.5668C16.5416 77.8478 29.784 82.0773 29.4347 69.6031C29.0854 57.129 42.1988 35.3405 42.1988 35.3405" stroke="#1F1304" stroke-width="1.11" stroke-miterlimit="10" stroke-linecap="round"/>
<path d="M34.4108 18.4136C33.5745 4.14353 42.496 1.21704 42.496 1.21704C42.496 1.21704 49.7231 1.95772 39.1172 12.7911" stroke="#1F1304" stroke-width="1.11" stroke-miterlimit="10" stroke-linecap="round"/>
<path d="M60.0999 156.276V165.563L61.6059 163.138L62.8365 165.982L72.445 165.938L66.5921 163.255L65.36 155.508L60.0999 156.276Z" fill="#1F1304"/>
<path d="M18.0853 114.686L10.3321 109.571L11.5264 112.164L8.47528 111.625L3.21948 119.668L8.68255 116.262L15.8299 119.5L18.0853 114.686Z" fill="#1F1304"/>
<path d="M32.2322 93.0413L35.6848 119.233L18.7187 108.009L11.6351 120.281L44.976 141.868L48.5779 96.9577L55.9238 158.392L71.1303 157.227L58.0154 92.6963L32.2322 93.0413Z" fill="#E0B154"/>
<path d="M25.2341 118.214C25.2341 118.214 17.1011 127.891 25.337 125.896C33.5729 123.902 29.8652 128.446 25.2863 122.128C20.7074 115.81 19.0536 111.483 24.0455 116.056C29.0375 120.629 36.1936 124.735 26.5923 122.254C16.991 119.772 20.8321 125.086 29.2738 127.582C37.7155 130.078 27.862 119.629 20.8813 117.982" stroke="#1F1304" stroke-width="1.11" stroke-miterlimit="10" stroke-linecap="round"/>
<path d="M65.1716 139.932C65.1716 139.932 53.1004 147.776 61.0797 148.249C69.0591 148.722 58.1996 138.865 58.1996 138.865C58.1996 138.865 53.2714 149.514 59.9593 151.164C66.6472 152.813 63.8381 159.374 61.6682 148.966C59.4983 138.559 61.9494 126.645 62.5031 135.473C63.0568 144.302 51.4552 144.025 58.1851 148.578C64.915 153.131 71.4609 144.051 66.1572 148.616C60.8536 153.18 59.0548 159.149 59.2577 152.912C59.4607 146.675 64.6469 143.99 64.6469 143.99" stroke="#1F1304" stroke-width="1.11" stroke-miterlimit="10" stroke-linecap="round"/>
<path d="M38.0272 99.3421L39.4767 99.3232L39.1042 103.967L38.0272 99.3421Z" fill="#1F1304"/>
<path d="M43.6846 99.5566L41.9452 99.5798L42.8729 103.917L43.6846 99.5566Z" fill="#1F1304"/>
<path d="M50.6158 97.5796L52.5002 97.5535L52.5436 100.887L50.6158 97.5796Z" fill="#1F1304"/>
<path d="M56.1225 97.5056L55.1122 97.8086L56.1674 100.839L56.1225 97.5056Z" fill="#1F1304"/>
<path d="M37.2547 107.471C37.735 107.471 38.1244 107.081 38.1244 106.601C38.1244 106.121 37.735 105.731 37.2547 105.731C36.7744 105.731 36.385 106.121 36.385 106.601C36.385 107.081 36.7744 107.471 37.2547 107.471Z" fill="#1F1304"/>
<path d="M40.8566 105.684C41.2568 105.684 41.5813 105.359 41.5813 104.959C41.5813 104.559 41.2568 104.234 40.8566 104.234C40.4563 104.234 40.1318 104.559 40.1318 104.959C40.1318 105.359 40.4563 105.684 40.8566 105.684Z" fill="#1F1304"/>
<path d="M45.6065 103.299C46.0868 103.299 46.4762 102.91 46.4762 102.429C46.4762 101.949 46.0868 101.56 45.6065 101.56C45.1262 101.56 44.7368 101.949 44.7368 102.429C44.7368 102.91 45.1262 103.299 45.6065 103.299Z" fill="#1F1304"/>
<path d="M42.0611 108.857C42.3813 108.857 42.6409 108.597 42.6409 108.277C42.6409 107.957 42.3813 107.697 42.0611 107.697C41.7409 107.697 41.4813 107.957 41.4813 108.277C41.4813 108.597 41.7409 108.857 42.0611 108.857Z" fill="#1F1304"/>
<path d="M44.7861 107.08C45.3465 107.08 45.8007 106.625 45.8007 106.065C45.8007 105.505 45.3465 105.05 44.7861 105.05C44.2258 105.05 43.7715 105.505 43.7715 106.065C43.7715 106.625 44.2258 107.08 44.7861 107.08Z" fill="#1F1304"/>
<path d="M38.8882 110.203C39.2885 110.203 39.6129 109.879 39.6129 109.478C39.6129 109.078 39.2885 108.754 38.8882 108.754C38.4879 108.754 38.1635 109.078 38.1635 109.478C38.1635 109.879 38.4879 110.203 38.8882 110.203Z" fill="#1F1304"/>
<path d="M35.45 102.566C35.9303 102.566 36.3197 102.176 36.3197 101.696C36.3197 101.216 35.9303 100.826 35.45 100.826C34.9697 100.826 34.5803 101.216 34.5803 101.696C34.5803 102.176 34.9697 102.566 35.45 102.566Z" fill="#1F1304"/>
<path d="M52.0075 104.808C52.4077 104.808 52.7322 104.484 52.7322 104.083C52.7322 103.683 52.4077 103.359 52.0075 103.359C51.6072 103.359 51.2827 103.683 51.2827 104.083C51.2827 104.484 51.6072 104.808 52.0075 104.808Z" fill="#1F1304"/>
<path d="M54.1468 102.315C54.6271 102.315 55.0165 101.926 55.0165 101.445C55.0165 100.965 54.6271 100.576 54.1468 100.576C53.6665 100.576 53.2771 100.965 53.2771 101.445C53.2771 101.926 53.6665 102.315 54.1468 102.315Z" fill="#1F1304"/>
<path d="M58.0516 101.538C58.4519 101.538 58.7764 101.214 58.7764 100.813C58.7764 100.413 58.4519 100.089 58.0516 100.089C57.6514 100.089 57.3269 100.413 57.3269 100.813C57.3269 101.214 57.6514 101.538 58.0516 101.538Z" fill="#1F1304"/>
<path d="M55.9587 108.09C56.5991 108.09 57.1182 107.571 57.1182 106.93C57.1182 106.29 56.5991 105.771 55.9587 105.771C55.3182 105.771 54.7991 106.29 54.7991 106.93C54.7991 107.571 55.3182 108.09 55.9587 108.09Z" fill="#1F1304"/>
<path d="M37.3851 116.456L37.6431 113.989L38.9883 117.014L39.6652 113.527L41.0161 116.988L42.1191 112.769L42.7612 117.4L44.8731 112.732L45.3761 117.798" stroke="#1F1304" stroke-width="1.11" stroke-miterlimit="10"/>
<path d="M37.4908 118.846L37.8315 122.612L39.8245 119.83L39.8868 124.469L41.7117 120.094L41.7842 125.457L43.167 120.51L43.6816 126.447L45.0513 120.486" stroke="#1F1304" stroke-width="1.11" stroke-miterlimit="10"/>
<path d="M51.8132 116.627L53.3526 112.545L55.4369 116.578L56.8212 111.776L58.3286 116.105L58.9823 110.731L61.0696 115.053" stroke="#1F1304" stroke-width="1.11" stroke-miterlimit="10"/>
<path d="M52.7191 119.368L54.6672 124.127L55.908 119.326L56.9864 124.095L58.2199 118.859L59.5954 124.059L60.1013 118.545L62.2001 123.734L62.1233 117.938" stroke="#1F1304" stroke-width="1.11" stroke-miterlimit="10"/>
<path d="M37.5996 126.964L44.0469 132.097" stroke="#1F1304" stroke-width="1.11" stroke-miterlimit="10"/>
<path d="M36.7437 127.844L42.9054 133.414" stroke="#1F1304" stroke-width="1.11" stroke-miterlimit="10"/>
<path d="M35.3116 129.168L42.9315 135.299" stroke="#1F1304" stroke-width="1.11" stroke-miterlimit="10"/>
<path d="M33.8795 130.638L41.9342 136.763" stroke="#1F1304" stroke-width="1.11" stroke-miterlimit="10"/>
<path d="M54.4244 127.608L55.5246 133.972" stroke="#1F1304" stroke-width="1.11" stroke-miterlimit="10"/>
<path d="M56.0065 126.717L57.5458 133.364" stroke="#1F1304" stroke-width="1.11" stroke-miterlimit="10"/>
<path d="M59.0504 126.676L59.7085 132.465" stroke="#1F1304" stroke-width="1.11" stroke-miterlimit="10"/>
<path d="M61.5087 126.209L61.8536 130.263" stroke="#1F1304" stroke-width="1.11" stroke-miterlimit="10"/>
<path d="M63.5278 125.456L63.5974 130.674" stroke="#1F1304" stroke-width="1.11" stroke-miterlimit="10"/>
<path d="M74.7062 54.1228L73.6916 51.5138C73.6916 51.5138 63.2872 58.8496 63.0031 59.2888C62.7669 59.654 53.7193 46.8842 50.6913 42.5894L50.2869 40.6137L50.2463 37.5698L41.9843 37.68L41.7408 41.1587L36.5705 44.7114L25.1342 78.2059L35.0978 73.6907L29.4362 96.4142L61.7595 96.7041L53.1569 54.6388L65.1237 66.0738L74.7062 54.1228ZM36.9155 66.3926L33.831 67.7059L39.01 57.9683L36.9155 66.3926Z" fill="#1F1304"/>
<path d="M44.0861 64.6156L48.6592 59.7729L47.3981 62.9777L52.3075 61.6065L48.9983 63.5372L53.5004 64.1996L50.0217 64.2475L53.9628 66.2246L50.4782 65.6897L53.5511 67.8233L49.0418 66.7232L45.4254 67.2073L44.0861 64.6156Z" fill="#E0B154"/>
<path d="M44.0861 63.3298L41.8756 64.9214H44.6296L42.4554 67.0956H45.4993L43.7599 68.9799L46.4762 68.5334" stroke="#E0B154" stroke-width="1.11" stroke-miterlimit="10"/>
<path d="M39.7013 66.2261L34.0483 68.1104" stroke="#E0B154" stroke-width="1.11" stroke-miterlimit="10"/>
<path d="M39.7014 67.8203L34.4833 69.8496" stroke="#E0B154" stroke-width="1.11" stroke-miterlimit="10"/>
<path d="M41.8756 69.2698L34.4833 72.3137" stroke="#E0B154" stroke-width="1.11" stroke-miterlimit="10"/>
<path d="M32.599 61.1528L26.6561 76.2274L33.0338 73.3284V68.1103L30.7147 68.835L28.8303 74.0532L31.7293 73.0385L32.0192 70.2845" stroke="#E0B154" stroke-width="1.11" stroke-miterlimit="10"/>
<path d="M33.6136 61.8777L32.0192 66.0812L33.6136 63.907L32.7439 66.661L35.0631 63.3272" stroke="#E0B154" stroke-width="1.11" stroke-miterlimit="10"/>
<path d="M42.8903 44.6289L43.6802 39.2209L45.3544 43.7593L46.5139 39.2659V44.6289L47.9547 39.2209L49.4129 44.339" stroke="#E0B154" stroke-width="1.11" stroke-miterlimit="10"/>
<path d="M44.0498 46.3682C44.0498 46.3682 51.732 51.5863 51.5871 48.9772C51.4421 46.3682 50.5724 44.6288 49.8477 46.658C49.123 48.6873 51.2972 52.7458 52.3118 52.311C53.3264 51.8762 48.2533 52.1661 47.9634 49.8469C47.6735 47.5277 47.6735 45.3535 49.2679 47.5277C50.8623 49.7019 53.7613 47.2378 52.4568 49.557C51.1522 51.8762 49.3447 51.5863 52.7843 52.8212" stroke="#E0B154" stroke-width="1.11" stroke-miterlimit="10" stroke-linecap="round"/>
<path d="M55.6456 51.8762L58.2547 55.0651" stroke="#E0B154" stroke-width="1.11" stroke-miterlimit="10"/>
<path d="M55.0658 52.8909L56.9501 55.355" stroke="#E0B154" stroke-width="1.11" stroke-miterlimit="10"/>
<path d="M54.3411 54.0503L56.5153 55.7897" stroke="#E0B154" stroke-width="1.11" stroke-miterlimit="10"/>
<path d="M53.9062 48.5425L53.6163 51.4414L54.631 50.7167L53.6163 49.992" stroke="#E0B154" stroke-width="1.11" stroke-miterlimit="10"/>
<path d="M58.5446 57.0942L60.8637 58.9786" stroke="#E0B154" stroke-width="1.11" stroke-miterlimit="10"/>
<path d="M65.9369 59.4136L64.9222 64.1968" stroke="#E0B154" stroke-width="1.11" stroke-miterlimit="10"/>
<path d="M64.9222 58.2539L63.9076 63.3271" stroke="#E0B154" stroke-width="1.11" stroke-miterlimit="10"/>
<path d="M63.9076 58.2539L63.6177 60.718" stroke="#E0B154" stroke-width="1.11" stroke-miterlimit="10"/>
<path d="M59.7041 56.6594L62.0233 58.9786" stroke="#E0B154" stroke-width="1.11" stroke-miterlimit="10"/>
<path d="M39.7014 43.904L41.4408 42.7444C41.4408 42.7444 40.2812 45.6433 40.716 45.4984C41.1509 45.3534 41.8756 45.7883 41.8756 45.7883C41.8756 45.7883 42.0206 46.9479 42.3105 46.9479C42.6004 46.9479 43.4701 47.3827 43.4701 47.3827" stroke="#E0B154" stroke-width="1.11" stroke-miterlimit="10" stroke-linecap="round"/>
<path d="M48.6881 77.6768C48.2532 77.6768 26.2212 88.9827 38.6867 88.8378C51.1522 88.6929 59.849 89.7075 50.2825 83.9096C40.716 78.1117 38.1069 67.8204 43.47 75.0678C48.833 82.3152 32.454 92.0266 42.8902 89.5625C53.3264 87.0984 58.6894 82.0253 51.0072 81.3005C43.325 80.5758 29.1202 74.6329 38.6867 80.2859C48.2532 85.9388 58.5445 97.6796 50.1375 92.0266C41.7306 86.3737 38.2519 88.1131 44.7745 83.9096C51.2971 79.7061 56.3703 75.3577 51.4421 76.2274C46.5139 77.0971 43.47 82.895 48.6881 85.7939" stroke="#E0B154" stroke-width="1.11" stroke-miterlimit="10" stroke-linecap="round"/>
<path d="M30.5697 95.0705C30.5697 95.0705 39.4043 90.4322 42.8149 92.8963C46.2255 95.3604 48.3982 95.3604 49.2679 94.3457C50.1376 93.3311 56.3704 93.0412 58.9794 94.4907C61.5885 95.9402 60.8637 95.2154 60.8637 95.2154" stroke="#E0B154" stroke-width="1.11" stroke-miterlimit="10" stroke-linecap="round"/>
<path d="M54.341 71.4441L47.3835 74.488V71.734L53.6163 73.6183L51.2971 71.4441L50.5724 74.488" stroke="#E0B154" stroke-width="1.11" stroke-miterlimit="10"/>
<path d="M56.5153 79.9961L58.5445 90.4323" stroke="#E0B154" stroke-width="1.11" stroke-miterlimit="10"/>
<path d="M55.9354 85.939L56.5152 90.4323" stroke="#E0B154" stroke-width="1.11" stroke-miterlimit="10"/>
<path d="M35.0631 81.7354L32.0192 91.012" stroke="#E0B154" stroke-width="1.11" stroke-miterlimit="10"/>
<path d="M36.8024 81.3005L35.9327 83.7646" stroke="#E0B154" stroke-width="1.11" stroke-miterlimit="10"/>
<path d="M38.6867 74.4881L37.962 76.2274L36.3676 74.4881L39.7013 75.7926L38.8317 77.6769L36.3676 76.2274L37.962 74.0532" stroke="#E0B154" stroke-width="1.11" stroke-miterlimit="10"/>
<path d="M77.0369 39.7063L59.8171 36.9233L55.5499 63.327L72.7696 66.11L77.0369 39.7063Z" fill="#E0B154"/>
<path d="M38.7592 48.615L34.1208 59.0512L39.339 52.8185L35.8602 59.4861L40.7884 54.9927L41.2233 59.7759L43.5424 54.9927L45.7166 59.0512C45.7166 59.0512 45.5717 55.4275 46.1515 55.1376C46.7313 54.8477 50.4999 59.631 50.4999 59.0512C50.4999 58.4714 49.4853 55.1376 49.4853 55.1376L52.964 59.7759L51.9494 54.9927" stroke="#E0B154" stroke-width="1.11" stroke-miterlimit="10" stroke-linecap="round"/>
<path d="M75.3776 41.5325L60.8197 39.1797L57.2122 61.5008L71.7701 63.8536L75.3776 41.5325Z" fill="white"/>
<path d="M74.2321 46.935L78.4356 46.5886L74.7061 54.123L74.5902 52.0039L75.5758 49.2368L72.387 50.0036L75.4149 48.8034L73.3857 48.831L75.9846 48.0714C75.9846 48.0714 73.2306 48.2526 73.5205 48.2483C73.8103 48.2439 76.2643 47.4873 76.2643 47.4873L74.2321 46.935Z" fill="#1F1304"/>
<path d="M75.184 37.2662L62.1874 35.1658L61.7484 37.8822L74.745 39.9827L75.184 37.2662Z" fill="#1F1304"/>
</svg>
