<svg width="167" height="172" viewBox="0 0 167 172" fill="none" xmlns="http://www.w3.org/2000/svg">
<path d="M156.36 90.7227L151.644 107.379L87.385 92.1064C87.2513 91.9514 87.0636 91.8531 86.8601 91.8316C84.4299 91.519 82.1297 90.6486 79.7851 89.9543L84.4595 161.547L67.1833 160.53L68.2578 94.4905C68.3804 94.3263 68.4357 94.1215 68.4124 93.9179C68.1656 91.1521 68.6559 88.3929 68.7826 85.6336L79.5942 86.9499L79.6288 87.4731L82.4719 79.4109L156.36 90.7227Z" fill="#E0B154"/>
<path d="M72.205 158.791L70.7817 169.235L72.8483 166.739L73.7977 170.127L84.6109 171.55L78.4392 167.634L78.2385 158.731L72.205 158.791Z" fill="#1F1304"/>
<path d="M80.4119 141.181C80.4119 141.181 65.6334 148.157 74.5347 149.901C83.4361 151.645 72.7331 138.907 72.7331 138.907C72.7331 138.907 65.5561 150.128 72.8285 153.007C80.101 155.887 75.9349 162.837 75.0876 150.798C74.2402 138.759 78.8225 125.728 78.092 135.749C77.3615 145.771 64.3566 143.69 71.2292 149.837C78.1019 155.984 86.8601 146.776 80.1915 151.1C73.5229 155.424 70.5859 161.858 71.7722 154.877C72.9585 147.895 79.1977 145.674 79.1977 145.674" stroke="#1F1304" stroke-width="1.26" stroke-miterlimit="10" stroke-linecap="round"/>
<path d="M78.3915 96.9173C78.8459 96.9173 79.2142 96.549 79.2142 96.0946C79.2142 95.6403 78.8459 95.272 78.3915 95.272C77.9372 95.272 77.5688 95.6403 77.5688 96.0946C77.5688 96.549 77.9372 96.9173 78.3915 96.9173Z" fill="#1F1304"/>
<path d="M75.1024 103.969C75.8294 103.969 76.4187 103.38 76.4187 102.653C76.4187 101.926 75.8294 101.337 75.1024 101.337C74.3755 101.337 73.7861 101.926 73.7861 102.653C73.7861 103.38 74.3755 103.969 75.1024 103.969Z" fill="#1F1304"/>
<path d="M68.9537 112.923L71.3099 108.571L73.0375 113.423L75.3295 108.234L76.3627 113.335L77.9192 107.392L79.6057 112.571" stroke="#1F1304" stroke-width="1.26" stroke-miterlimit="10"/>
<path d="M69.5543 116.147L71.017 121.795L73.1461 116.587L73.6299 122.116L75.8198 116.416L76.5701 122.476L77.9834 116.351L79.5515 122.509L80.3495 115.977" stroke="#1F1304" stroke-width="1.26" stroke-miterlimit="10"/>
<path d="M70.2117 125.676L70.4733 133.002" stroke="#1F1304" stroke-width="1.26" stroke-miterlimit="10"/>
<path d="M72.126 124.917L72.8401 132.629" stroke="#1F1304" stroke-width="1.26" stroke-miterlimit="10"/>
<path d="M75.5565 125.335L75.4084 131.948" stroke="#1F1304" stroke-width="1.26" stroke-miterlimit="10"/>
<path d="M78.3932 125.185L78.1595 129.797" stroke="#1F1304" stroke-width="1.26" stroke-miterlimit="10"/>
<path d="M80.7789 124.651L80.0582 130.529" stroke="#1F1304" stroke-width="1.26" stroke-miterlimit="10"/>
<path d="M151.027 102.102L160.921 105.74L158.926 103.184L162.439 102.987L166.158 92.7349L161.006 97.9177L152.268 96.1967L151.027 102.102Z" fill="#1F1304"/>
<path d="M135.599 90.2949C135.599 90.2949 139.218 106.229 142.856 97.9129C146.494 89.5973 131.73 97.3041 131.73 97.3041C131.73 97.3041 141.144 106.73 145.522 100.248C149.9 93.765 155.789 99.3329 143.852 97.5657C131.915 95.7986 120.174 88.5196 129.804 91.394C139.434 94.2685 134.592 106.516 142.075 101.13C149.558 95.7427 142.452 85.2108 145.239 92.6494C148.026 100.088 153.676 104.346 147.113 101.684C140.55 99.0219 139.725 92.4504 139.725 92.4504" stroke="#1F1304" stroke-width="1.26" stroke-miterlimit="10" stroke-linecap="round"/>
<path d="M91.1183 91.6143C91.5727 91.6143 91.941 91.246 91.941 90.7917C91.941 90.3373 91.5727 89.969 91.1183 89.969C90.664 89.969 90.2957 90.3373 90.2957 90.7917C90.2957 91.246 90.664 91.6143 91.1183 91.6143Z" fill="#1F1304"/>
<path d="M93.0911 87.6656C93.6363 87.6656 94.0783 87.2236 94.0783 86.6784C94.0783 86.1332 93.6363 85.6912 93.0911 85.6912C92.5459 85.6912 92.1039 86.1332 92.1039 86.6784C92.1039 87.2236 92.5459 87.6656 93.0911 87.6656Z" fill="#1F1304"/>
<path d="M96.8309 88.4966C97.5579 88.4966 98.1472 87.9073 98.1472 87.1803C98.1472 86.4533 97.5579 85.864 96.8309 85.864C96.104 85.864 95.5146 86.4533 95.5146 87.1803C95.5146 87.9073 96.104 88.4966 96.8309 88.4966Z" fill="#1F1304"/>
<path d="M105.537 95.3988L101.793 92.1575L106.904 91.5175L102.33 88.1626L107.532 88.2498L102.065 85.4494L107.486 84.918" stroke="#1F1304" stroke-width="1.26" stroke-miterlimit="10"/>
<path d="M108.812 95.5056L114.645 95.2934L110.017 92.0915L115.522 92.8105L110.426 89.4442L116.504 90.0167L110.826 87.3184L117.179 87.1143L110.973 84.926" stroke="#1F1304" stroke-width="1.26" stroke-miterlimit="10"/>
<path d="M118.26 96.9175L125.47 98.2371" stroke="#1F1304" stroke-width="1.26" stroke-miterlimit="10"/>
<path d="M117.931 94.8821L125.615 95.8463" stroke="#1F1304" stroke-width="1.26" stroke-miterlimit="10"/>
<path d="M119.08 91.6218L125.505 93.1898" stroke="#1F1304" stroke-width="1.26" stroke-miterlimit="10"/>
<path d="M119.542 88.8215L123.996 90.044" stroke="#1F1304" stroke-width="1.26" stroke-miterlimit="10"/>
<path d="M119.534 86.3765L125.12 88.3459" stroke="#1F1304" stroke-width="1.26" stroke-miterlimit="10"/>
<path d="M79.5186 25.7905L78.1908 23.1645L73.7368 20.3855L78.0197 21.5191L77.3401 16.4218L78.839 20.6932L79.4758 15.7538L80.1537 20.1946L81.4502 15.7456L81.4716 20.6817L83.7603 17.2165L81.8073 22.4899L82.3173 26.108L79.5186 25.7905Z" fill="#E0B154"/>
<path d="M7.87016 48.9323L5.3791 47.3676L0.128784 47.2853L4.38366 46.0448L1.17029 42.0317L4.65843 44.9144L2.65604 40.3568L5.52718 43.8104L4.34253 39.3301L6.90763 43.5471L7.08039 39.3992L8.13012 44.9226L10.432 47.7609L7.87016 48.9323Z" fill="#E0B154"/>
<path d="M33.2645 34.1637C36.2969 39.0208 41.8549 44.6331 50.4946 39.3795C57.8724 34.8926 56.2534 27.6449 53.7985 22.5969" stroke="#1F1304" stroke-width="1.26" stroke-miterlimit="10" stroke-linecap="round"/>
<path d="M43.8195 29.6704L47.7222 31.3404L45.6145 32.6222" stroke="#1F1304" stroke-width="1.26" stroke-miterlimit="10"/>
<path d="M41.2971 36.0303C43.0736 34.9435 44.1882 33.5302 43.7865 32.8737C43.3849 32.2172 41.6191 32.566 39.8426 33.6528C38.0661 34.7396 36.9516 36.1528 37.3532 36.8094C37.7549 37.4659 39.5206 37.1171 41.2971 36.0303Z" fill="#E0B154"/>
<path d="M52.1449 29.9031C53.9214 28.8163 55.036 27.403 54.6343 26.7465C54.2327 26.09 52.4669 26.4388 50.6904 27.5256C48.9139 28.6124 47.7994 30.0256 48.201 30.6822C48.6026 31.3387 50.3684 30.9899 52.1449 29.9031Z" fill="#E0B154"/>
<path d="M35.3755 33.3609C35.3755 33.3609 41.228 35.3863 41.8417 29.4285" stroke="#1F1304" stroke-width="1.26" stroke-miterlimit="10" stroke-linecap="round"/>
<path d="M45.4977 27.2056C45.4977 27.2056 51.0721 29.8809 51.6858 23.9231" stroke="#1F1304" stroke-width="1.26" stroke-miterlimit="10" stroke-linecap="round"/>
<path d="M46.5605 35.1229C46.5605 35.1229 49.9878 37.275 49.0911 33.5845" stroke="#1F1304" stroke-width="1.26" stroke-miterlimit="10" stroke-linecap="round"/>
<path d="M48.4412 40.4375L50.8763 44.4423" stroke="#1F1304" stroke-width="1.26" stroke-miterlimit="10"/>
<path d="M52.553 37.8584L55.0243 41.9208" stroke="#1F1304" stroke-width="1.26" stroke-miterlimit="10"/>
<path d="M32.5636 34.59L56.4212 21.2429C56.4212 21.2429 46.1739 8.21008 36.9633 15.5434C27.7526 22.8767 28.3252 24.4579 32.5636 34.59Z" stroke="#1F1304" stroke-width="1.26" stroke-miterlimit="10" stroke-linecap="round"/>
<path d="M34.3882 33.4777C34.3882 33.4777 29.3863 28.6519 31.0975 21.052" stroke="#1F1304" stroke-width="1.26" stroke-miterlimit="10" stroke-linecap="round"/>
<path d="M36.4976 32.1976C36.4976 32.1976 31.4957 26.5178 32.6112 19.3276" stroke="#1F1304" stroke-width="1.26" stroke-miterlimit="10" stroke-linecap="round"/>
<path d="M38.9179 31.1099C38.9179 31.1099 33.3451 25.4153 34.0246 17.9932" stroke="#1F1304" stroke-width="1.26" stroke-miterlimit="10" stroke-linecap="round"/>
<path d="M41.0256 29.8282C41.0256 29.8282 34.9543 24.2768 35.392 17.0784" stroke="#1F1304" stroke-width="1.26" stroke-miterlimit="10" stroke-linecap="round"/>
<path d="M43.571 28.428C43.571 28.428 36.3857 22.8338 36.8777 15.405" stroke="#1F1304" stroke-width="1.26" stroke-miterlimit="10" stroke-linecap="round"/>
<path d="M45.1505 27.5445C45.1505 27.5445 38.4572 20.221 38.8455 14.2073" stroke="#1F1304" stroke-width="1.26" stroke-miterlimit="10" stroke-linecap="round"/>
<path d="M47.1561 26.2923C47.1561 26.2923 40.6076 19.91 40.8758 13.5671" stroke="#1F1304" stroke-width="1.26" stroke-miterlimit="10" stroke-linecap="round"/>
<path d="M48.8969 25.427C48.8969 25.427 41.3777 18.6811 43.2106 13.3074" stroke="#1F1304" stroke-width="1.26" stroke-miterlimit="10" stroke-linecap="round"/>
<path d="M50.3333 24.5517C50.3333 24.5517 43.8523 17.6955 45.1719 13.5278" stroke="#1F1304" stroke-width="1.26" stroke-miterlimit="10" stroke-linecap="round"/>
<path d="M52.1629 23.441C52.1629 23.441 46.4667 18.37 47.3569 14.2007" stroke="#1F1304" stroke-width="1.26" stroke-miterlimit="10" stroke-linecap="round"/>
<path d="M53.5122 22.8651C53.5122 22.8651 48.6617 17.4831 50.0438 15.5828" stroke="#1F1304" stroke-width="1.26" stroke-miterlimit="10" stroke-linecap="round"/>
<path d="M54.8844 22.031C54.8844 22.031 51.0672 19.1056 52.5085 17.3599" stroke="#1F1304" stroke-width="1.26" stroke-miterlimit="10" stroke-linecap="round"/>
<path d="M84.3642 23.9824L85.1292 62.6103L68.9012 57.4571L93.4679 83.9225L69.7452 99.6948L55.6594 60.6968L29.0212 60.9123L5.44495 49.0592L8.86234 44.8619L32.5735 55.6702L52.1844 50.8691L49.3824 44.6776L56.974 40.0608L60.5033 45.2321L77.5853 51.7921L78.1299 24.5007L84.3642 23.9824Z" fill="#1F1304"/>
<path d="M58.454 61.0166L60.8842 66.2801" stroke="#E0B154" stroke-width="1.26" stroke-miterlimit="10"/>
<path d="M61.1244 59.3936L63.9758 64.3987" stroke="#E0B154" stroke-width="1.26" stroke-miterlimit="10"/>
<path d="M64.4792 58.8933L67.0443 63.112" stroke="#E0B154" stroke-width="1.26" stroke-miterlimit="10"/>
<path d="M66.5878 57.6116L70.3128 62.4719" stroke="#E0B154" stroke-width="1.26" stroke-miterlimit="10"/>
<path d="M52.5563 46.8872L55.0967 51.6982" stroke="#E0B154" stroke-width="1.26" stroke-miterlimit="10"/>
<path d="M54.2435 45.8613L57.0653 50.4996" stroke="#E0B154" stroke-width="1.26" stroke-miterlimit="10"/>
<path d="M55.9308 44.8347L58.4942 49.0517" stroke="#E0B154" stroke-width="1.26" stroke-miterlimit="10"/>
<path d="M57.3359 43.9807L60.2614 47.2072" stroke="#E0B154" stroke-width="1.26" stroke-miterlimit="10"/>
<path d="M57.3886 58.0066L56.9443 54.4263L60.4901 57.0852L60.4604 52.289L63.863 55.0334L62.8495 50.8345L66.1188 54.6254" stroke="#E0B154" stroke-width="1.26" stroke-miterlimit="10"/>
<path d="M68.8831 49.668L70.1928 56.5751L71.4547 50.415L74.2387 58.158L75.4447 52.2265L78.1135 59.4627" stroke="#E0B154" stroke-width="1.26" stroke-miterlimit="10"/>
<path d="M81.7661 58.7207C82.5839 58.7207 83.2469 58.0577 83.2469 57.2398C83.2469 56.422 82.5839 55.759 81.7661 55.759C80.9483 55.759 80.2853 56.422 80.2853 57.2398C80.2853 58.0577 80.9483 58.7207 81.7661 58.7207Z" stroke="#E0B154" stroke-width="1.26" stroke-miterlimit="10"/>
<path d="M80.3001 44.7565C81.2088 44.7565 81.9455 44.0199 81.9455 43.1112C81.9455 42.2025 81.2088 41.4658 80.3001 41.4658C79.3914 41.4658 78.6548 42.2025 78.6548 43.1112C78.6548 44.0199 79.3914 44.7565 80.3001 44.7565Z" stroke="#E0B154" stroke-width="1.26" stroke-miterlimit="10"/>
<path d="M81.9257 28.7472C82.8344 28.7472 83.5711 28.0106 83.5711 27.1019C83.5711 26.1932 82.8344 25.4565 81.9257 25.4565C81.017 25.4565 80.2804 26.1932 80.2804 27.1019C80.2804 28.0106 81.017 28.7472 81.9257 28.7472Z" stroke="#E0B154" stroke-width="1.26" stroke-miterlimit="10"/>
<path d="M30.6138 59.4578C31.2499 59.4578 31.7655 58.9421 31.7655 58.306C31.7655 57.67 31.2499 57.1543 30.6138 57.1543C29.9777 57.1543 29.462 57.67 29.462 58.306C29.462 58.9421 29.9777 59.4578 30.6138 59.4578Z" stroke="#E0B154" stroke-width="1.26" stroke-miterlimit="10"/>
<path d="M49.3791 59.4346C49.9243 59.4346 50.3663 58.9926 50.3663 58.4474C50.3663 57.9022 49.9243 57.4602 49.3791 57.4602C48.8338 57.4602 48.3918 57.9022 48.3918 58.4474C48.3918 58.9926 48.8338 59.4346 49.3791 59.4346Z" stroke="#E0B154" stroke-width="1.26" stroke-miterlimit="10"/>
<path d="M39.6337 57.6592C40.1789 57.6592 40.6209 57.2172 40.6209 56.672C40.6209 56.1268 40.1789 55.6848 39.6337 55.6848C39.0885 55.6848 38.6465 56.1268 38.6465 56.672C38.6465 57.2172 39.0885 57.6592 39.6337 57.6592Z" stroke="#E0B154" stroke-width="1.26" stroke-miterlimit="10"/>
<path d="M10.8582 50.2332L25.0904 56.7997" stroke="#E0B154" stroke-width="1.26" stroke-miterlimit="10"/>
<path d="M14.9336 49.6687L26.2865 54.6393" stroke="#E0B154" stroke-width="1.26" stroke-miterlimit="10"/>
<path d="M81.5028 31.7878L81.7628 37.5992" stroke="#E0B154" stroke-width="1.26" stroke-miterlimit="10"/>
<path d="M81.085 51.6859L80.9468 47.3406" stroke="#E0B154" stroke-width="1.26" stroke-miterlimit="10"/>
<path d="M83.1959 45.9724L83.1696 50.994" stroke="#E0B154" stroke-width="1.26" stroke-miterlimit="10"/>
<path d="M80.1207 32.0486L80.4004 36.3084" stroke="#E0B154" stroke-width="1.26" stroke-miterlimit="10"/>
<path d="M49.978 45.181C49.978 45.181 5.12576 52.3333 17.9792 16.7872C30.2009 -17.0132 76.9716 10.0873 66.731 29.5058C60.2154 41.8689 49.978 45.181 49.978 45.181Z" stroke="#1F1304" stroke-width="1.26" stroke-miterlimit="10" stroke-linecap="round"/>
<path d="M61.2749 70.5656L72.2412 63.897L83.5332 78.9848L68.9126 87.8763L61.2749 70.5656Z" fill="white"/>
<path d="M65.7807 70.7439L64.2423 71.6851L70.1458 81.335L71.6842 80.3939L65.7807 70.7439Z" fill="#E0B154"/>
<path d="M67.4762 69.6836L73.0342 78.8236L74.9231 78.4435L69.0245 68.7441L67.4762 69.6836Z" fill="#1F1304"/>
<path d="M76.3528 76.9955L72.7627 71.0919L73.8881 70.4075L77.6198 76.2271L76.3528 76.9955Z" fill="#1F1304"/>
<path d="M70.9496 85.2568C71.6765 85.2568 72.2659 84.6675 72.2659 83.9405C72.2659 83.2136 71.6765 82.6243 70.9496 82.6243C70.2226 82.6243 69.6333 83.2136 69.6333 83.9405C69.6333 84.6675 70.2226 85.2568 70.9496 85.2568Z" fill="#1F1304"/>
<path d="M74.6039 82.3773C74.9674 82.3773 75.2621 82.0827 75.2621 81.7192C75.2621 81.3557 74.9674 81.061 74.6039 81.061C74.2405 81.061 73.9458 81.3557 73.9458 81.7192C73.9458 82.0827 74.2405 82.3773 74.6039 82.3773Z" fill="#1F1304"/>
<path d="M78.4557 80.8293C79.3644 80.8293 80.101 80.0926 80.101 79.1839C80.101 78.2752 79.3644 77.5386 78.4557 77.5386C77.547 77.5386 76.8103 78.2752 76.8103 79.1839C76.8103 80.0926 77.547 80.8293 78.4557 80.8293Z" fill="#1F1304"/>
<path d="M62.1898 70.011L70.0364 87.1917L68.9127 87.8762L61.2733 70.5671L62.1898 70.011Z" fill="#E0B154"/>
<path d="M29.8997 28.3145C29.8997 28.3145 17.0051 28.6436 21.0954 23.6532C25.1858 18.6629 30.4245 22.2152 30.4245 22.2152" stroke="#1F1304" stroke-width="1.26" stroke-miterlimit="10" stroke-linecap="round"/>
<path d="M29.6941 26.2891C29.6941 26.2891 24.2974 23.8523 21.5167 26.8781" stroke="#1F1304" stroke-width="1.26" stroke-miterlimit="10" stroke-linecap="round"/>
<path d="M29.5344 23.9133C29.5344 23.9133 23.7527 21.6525 20.2958 25.4879" stroke="#1F1304" stroke-width="1.26" stroke-miterlimit="10" stroke-linecap="round"/>
<path d="M29.9541 27.6053C29.9541 27.6053 24.8979 25.7444 23.5142 27.7566" stroke="#1F1304" stroke-width="1.26" stroke-miterlimit="10" stroke-linecap="round"/>
<path d="M30.0364 22.8389C30.2618 22.8932 26.6436 20.8135 21.7158 22.9656" stroke="#1F1304" stroke-width="1.26" stroke-miterlimit="10" stroke-linecap="round"/>
<path d="M48.5547 14.6582C48.5547 14.6582 52.1498 6.38871 47.2467 7.02217C42.3435 7.65563 43.4805 13.2877 43.4805 13.2877" stroke="#1F1304" stroke-width="1.26" stroke-miterlimit="10" stroke-linecap="round"/>
<path d="M46.1788 13.6001C46.1788 13.6001 46.4701 9.50648 49.5304 8.89771" stroke="#1F1304" stroke-width="1.26" stroke-miterlimit="10" stroke-linecap="round"/>
<path d="M45.0057 13.4439C45.0057 13.4439 44.9876 8.03567 48.8526 7.31665" stroke="#1F1304" stroke-width="1.26" stroke-miterlimit="10" stroke-linecap="round"/>
<path d="M47.1677 13.9605C47.1677 13.9605 47.7074 10.8705 49.6111 10.8113" stroke="#1F1304" stroke-width="1.26" stroke-miterlimit="10" stroke-linecap="round"/>
<path d="M44.058 13.2975C44.0333 13.4933 43.5266 9.78466 46.5491 7.1521" stroke="#1F1304" stroke-width="1.26" stroke-miterlimit="10" stroke-linecap="round"/>
<path d="M56.6515 9.44409C56.6515 9.44409 65.2896 14.7833 64.7729 22.7994" stroke="#1F1304" stroke-width="1.26" stroke-miterlimit="10" stroke-linecap="round"/>
<path d="M47.8653 78.4138L48.8213 81.3573H51.9162L49.4119 83.1771L50.3695 86.119L47.8653 84.3009L45.3611 86.119L46.3187 83.1771L43.8145 81.3573H46.9094L47.8653 78.4138Z" fill="#1F1304"/>
<path d="M108.826 24.7161L109.961 28.2124H113.637L110.663 30.3711L111.799 33.8675L108.826 31.7072L105.852 33.8675L106.988 30.3711L104.015 28.2124H107.69L108.826 24.7161Z" fill="#1F1304"/>
<path d="M113.597 134.91L114.374 137.299H116.888L114.854 138.778L115.631 141.169L113.597 139.69L111.563 141.169L112.34 138.778L110.306 137.299H112.82L113.597 134.91Z" fill="#1F1304"/>
<path d="M25.8998 116.43L26.3178 117.72H27.6719L26.5761 118.516L26.9957 119.803L25.8998 119.008L24.804 119.803L25.2236 118.516L24.1278 117.72H25.4819L25.8998 116.43Z" fill="#1F1304"/>
<path d="M123.963 66.0061L124.621 68.0299H126.748L125.027 69.2804L125.684 71.3041L123.963 70.0537L122.242 71.3041L122.898 69.2804L121.177 68.0299H123.305L123.963 66.0061Z" fill="#1F1304"/>
</svg>
