<svg id="Capa_1" data-name="Capa 1" xmlns="http://www.w3.org/2000/svg" viewBox="0 0 1481 1661"><title>Mesa de trabajo 29</title><polygon points="257.05 1407.36 1373 1236.41 64.32 424.69 257.05 1407.36" fill="#fd612e"/><polygon points="1342.49 1409 264.13 1478.37 264.13 295.24 822.92 251 1342.49 1409" fill="#fcc75f"/><path d="M409.48,897.64,409,900v-2.2Z"/><path d="M644.93,835.22,409.48,897.64l.54-2.43c5.68-25.49,32.81-147.11,49.13-216.09a62,62,0,1,1,37.47-64c34.36-18.66,95.87-39.93,132.94,20.3C682.24,721.08,644.93,835.22,644.93,835.22Z"/><polyline points="580.37 836.47 561.32 734.28 538.01 735.82 523.41 838.88" fill="#f6f4e7"/><polygon points="533.99 732.34 530.58 756.33 570.14 738.64 566.13 731.49 533.99 732.34"/><circle cx="555.28" cy="691.94" r="47.34" fill="#f6f4e7"/><path d="M619.69,679.38c-32.4,22.34-63.67,14-86.56.37-11.72,14.36-30.05,32.6-49.54,35.84,0,0-13.34-50,20.81-58.56a113.36,113.36,0,0,1-7.64-8.39c27.44-35.12,91.1-8.78,91.1-8.78Z"/><polygon points="755.14 1530.45 353.68 1526.53 379 846 480.31 831.72 475.96 803.05 530.03 805.82 541.02 823.16 585.18 816.94 589.65 803.03 639.56 791.93 638.62 809.41 683.93 803.02 755.14 1530.45" fill="#8964fe"/><polygon points="358.48 424.75 647.12 373.17 647.12 497.19 445.18 536.7 455.06 457.68 358.48 480.72 358.48 424.75" fill="none" stroke="#fff" stroke-miterlimit="10" stroke-width="4"/><circle cx="205.46" cy="412.8" r="10.98"/><circle cx="1157.52" cy="1320.18" r="18.66"/><circle cx="1182.72" cy="889.97" r="18.66"/><circle cx="201.21" cy="1337.6" r="21.95"/><polygon points="219.45 1195.79 211.77 1033.36 273.23 1148.6 219.45 1195.79" fill="#8964fe"/><polygon points="217.99 722.18 335.43 775.96 250.92 893.39 217.99 844 257.5 797.91 215.8 764.98 217.99 722.18" fill="none" stroke="#fff" stroke-miterlimit="10" stroke-width="4"/><path d="M595.47,329.33S460.66,198.76,309.83,365.84" fill="none" stroke="#fd6232" stroke-miterlimit="10" stroke-width="4"/><path d="M639.37,242.21S475.59,114.37,330.16,290.37" fill="none" stroke="#fd6232" stroke-miterlimit="10" stroke-width="4"/><polygon points="954.66 1322.83 986.07 1172.51 1082.89 1153.46 1062.71 1344.12 954.66 1322.83" fill="none" stroke="#fff" stroke-miterlimit="10" stroke-width="4"/><path d="M1043.82,1204.47,1037.7,1178c44.24-10.24,77.93-41.07,90.13-82.48,17.05-57.89-9-128-71.49-192.41-31-32-41.72-63.32-31.81-93.19,12.62-38,58.81-70.57,137.28-96.72a783.69,783.69,0,0,1,110.58-27.62l4.31,26.79a770.18,770.18,0,0,0-106.63,26.67c-31.38,10.48-57.35,22.06-77.19,34.42-23.14,14.42-37.48,29.56-42.6,45-6.56,19.78,1.79,41.28,25.53,65.75,36.33,37.44,61.33,76.32,74.28,115.55,11.83,35.84,13.13,71.6,3.76,103.42C1138.85,1154.14,1097.72,1192,1043.82,1204.47ZM1276.7,712.41l-2.15-13.4,2.16,13.4Z" fill="#fd612e"/><polygon points="826.77 188.16 850.71 411.13 996.88 232.08 826.77 188.16" fill="#8964fe"/><path d="M376.34,927.77s7.08,32.18,45.62,49,290.85,123.09,290.85,123.09L722,1186,374.91,983.38Z"/><polygon points="497.52 829.4 696.18 918.74 690 875 497.52 829.4"/><polygon points="1336.22 493.91 894.72 693.11 894.72 1524 871.78 1524 871.78 703.46 753.11 757 718.88 680.74 622.15 724.38 595.47 664.93 692.21 621.29 658.1 545.27 1241.21 282.17 1336.22 493.91" fill="#fd612e"/><circle cx="758.47" cy="335.53" r="16.46"/><path d="M899.49,707.33a296.2,296.2,0,0,0,31.1,5.65c17.75,2.19,35.88,3.2,53.89,4.9l23.76-57.06,73.35-152.75-66.81,82.18,25.82-107.94L991.18,586.1l12.9-110L974.52,590.6,958.46,495,940.08,609.4l-24.42-64,13.39,117.66Z" fill="#f6f4e7"/><path d="M384.87,821.42c-14.41,22.94-16.2,63.46-14.17,81.61,1.62,14.44,5.24,28.87,12.66,41.36,20.17,33.94,77,46.37,111.05,61,9.54,8.71,30.93,13.28,42.92,18.43l48.28,20.72c29.37,12.61,58.61,25.47,87.93,38.2,8.15,3.54,138.64,61.33,139.1,60.38L1030.4,697.43,914.87,676,711.32,920.18c-7.56,9.07-94.71-40.83-105.52-45.75q-67.93-30.95-138-56.83C443,808.39,403,792.52,384.87,821.42Z" fill="#8964fe"/><rect x="1171.11" y="266.15" width="146.41" height="286.76" transform="translate(-58.46 546.65) rotate(-24.23)" fill="#8964fe"/></svg>