<svg width="1000" height="1000" viewBox="0 0 1000 1000" fill="none" xmlns="http://www.w3.org/2000/svg">
<mask id="mask0_0_820" style="mask-type:alpha" maskUnits="userSpaceOnUse" x="50" y="109" width="910" height="752">
<path fill-rule="evenodd" clip-rule="evenodd" d="M178.644 246.338C178.644 246.338 337.985 75.9263 591.758 115.767C845.53 155.608 591.758 351.1 832.979 410.11C1074.2 469.119 922.98 787.073 779.869 833.542C636.758 880.012 551.917 871.903 486.267 768.633C420.617 665.363 248.724 745.762 138.803 677.151C28.8817 608.54 -0.617691 438.88 178.644 246.338Z" fill="white"/>
</mask>
<g mask="url(#mask0_0_820)">
<path d="M178.644 246.338C178.644 246.338 337.985 75.9263 591.758 115.767C845.53 155.608 591.758 351.1 832.979 410.11C1074.2 469.119 922.98 787.073 779.869 833.542C636.758 880.012 551.917 871.903 486.267 768.633C420.617 665.363 248.724 745.762 138.803 677.151C28.8817 608.54 -0.617691 438.88 178.644 246.338Z" fill="#866EF9"/>
<g opacity="0.59">
<path d="M823.256 392.907C823.256 392.907 885.702 539.2 784.498 633.687C683.294 728.173 817.522 776.798 871.372 719.997C925.223 663.197 960.6 488.775 890.564 408.872C820.527 328.97 823.256 392.907 823.256 392.907Z" fill="#A997FF"/>
<path d="M236.925 521.556C236.925 521.556 222.164 618.141 334.295 627.731C446.426 637.321 543.829 672.732 552.668 725.842C561.507 778.952 739.288 705.612 651.508 613.556C563.728 521.5 491.846 522.959 410.496 525.931C329.146 528.903 236.925 521.556 236.925 521.556Z" fill="#A997FF"/>
<path d="M587.46 880.753C587.46 880.753 592.376 798.872 675.848 809.943C759.319 821.013 732.703 746.491 858.147 793.713C983.592 840.934 669.484 912.473 587.46 880.753Z" fill="#A997FF"/>
<path d="M669.948 430.859C669.948 430.859 777.549 436.294 789.039 503.613C800.53 570.931 751.828 652.469 710.473 613.556C669.119 574.644 724.361 472.81 604.552 461.01C484.742 449.21 597.657 405.867 669.948 430.859Z" fill="#A997FF"/>
<path d="M17.8223 483.505C19.2033 485.814 67.2532 569.451 118.894 537.731C170.534 506.01 69.4628 482.4 98.2331 446.249C127.003 410.099 113.922 347.398 75.8268 347.398C37.7316 347.398 -8.72723 438.88 17.8223 483.505Z" fill="#A997FF"/>
<path d="M197.36 715.512C197.36 715.512 279.749 640.271 313.292 688.995C346.835 737.719 376.268 664.689 402.133 702.253C427.997 739.818 298.697 774.533 197.36 715.512H197.36Z" fill="#A997FF"/>
<path d="M512.463 96.5869C512.463 96.5869 658.137 108.641 671.417 201.835C684.697 295.029 561.529 248.934 552.668 205.591C543.807 162.248 507.756 143.72 467.871 154.823C427.986 165.927 354.414 126.097 417.755 96.5869C481.096 67.0764 512.463 96.5869 512.463 96.5869Z" fill="#A997FF"/>
<path d="M722.119 248.095C722.119 248.095 674.179 266.7 688.664 314.076C703.148 361.452 656.933 365.142 685.935 384.322C714.937 403.503 751.121 375.716 740.072 334.604C729.024 293.493 722.119 248.095 722.119 248.095Z" fill="#A997FF"/>
<path d="M457.463 259.718C457.463 259.718 490.034 229.158 505.138 254.348C520.241 279.539 578.135 299.205 552.127 338.062C526.119 376.92 405.536 391.371 457.463 259.718Z" fill="#A997FF"/>
</g>
</g>
<path d="M164.568 147.73H431.533V586.41H164.568L164.568 147.73Z" fill="white" stroke="#111111" stroke-width="1.34"/>
<path d="M230.163 334.615H286.676V391.106H230.163C214.56 391.106 201.912 378.458 201.912 362.855C201.918 347.257 214.565 334.615 230.163 334.615V334.615Z" fill="#111111" stroke="#111111" stroke-width="1.34"/>
<path d="M195.924 199.658H301.735V293.67H195.924L195.924 199.658Z" fill="#111111" stroke="#111111" stroke-width="1.34"/>
<path d="M205.37 186.588H339.532V280.599H205.37L205.37 186.588Z" fill="white" stroke="#111111" stroke-width="1.34"/>
<rect x="184.964" y="550.514" width="256.656" height="21.2241" rx="9.6" fill="#111111" stroke="#111111" stroke-width="1.34"/>
<rect x="190.455" y="544.614" width="256.656" height="21.2241" rx="9.6" fill="white" stroke="#111111" stroke-width="1.34"/>
<path d="M845.762 550.039C842.503 550.039 839.862 547.397 839.862 544.139V491.029C839.856 485.6 835.457 481.202 830.029 481.195H464.092C461.921 481.289 459.874 480.185 458.761 478.319C457.647 476.453 457.647 474.127 458.761 472.261C459.874 470.395 461.921 469.291 464.092 469.385H830.029C841.977 469.397 851.661 479.08 851.673 491.029V544.194C851.637 547.433 849.001 550.039 845.762 550.039Z" fill="white" stroke="#111111" stroke-width="1.34"/>
<path fill-rule="evenodd" clip-rule="evenodd" d="M228.252 343.907H284.764V400.398H228.252C212.662 400.38 200.034 387.737 200.034 372.147C200.04 356.562 212.666 343.925 228.252 343.907V343.907Z" stroke="#111111" stroke-width="1.34"/>
<path d="M252.05 353.309C238.184 360.391 250.05 382.035 264.59 364.004C318.043 402.575 362.446 422.462 397.945 431.842C396.439 422.494 395.7 413.038 395.736 403.569C395.676 393.46 396.516 383.366 398.244 373.407L398.034 373.219C335.444 372.545 276.533 340.78 252.05 353.309Z" fill="white"/>
<path d="M275.948 201.835H479.759V525.931H275.948V201.835Z" fill="white" stroke="#111111" stroke-width="1.34"/>
<path d="M292.642 245.178H386.433V334.615H292.642V245.178Z" fill="#111111" stroke="#111111" stroke-width="1.34"/>
<path d="M299.028 238.715H392.819V328.152H299.028V238.715Z" fill="white" stroke="#111111" stroke-width="1.34"/>
<path d="M291.239 425.412H351.1V510.618H291.239V425.412Z" fill="#111111" stroke="#111111" stroke-width="1.34"/>
<path d="M299.028 418.407H358.889V503.613H299.028V418.407Z" fill="white" stroke="#111111" stroke-width="1.34"/>
<path d="M299.028 290.278L333.312 255.442L354.956 287.891L377.859 268.225L392.819 283.439L390.852 319.368" fill="white"/>
<path d="M299.028 290.278L333.312 255.442L354.956 287.891L377.859 268.225L392.819 283.439L390.852 319.368" stroke="#111111" stroke-width="1.34"/>
<path d="M342.195 268.225H512.463V468.876H342.195V268.225Z" fill="white" stroke="#111111" stroke-width="1.34"/>
<path d="M342.195 268.225H512.463V290.278H342.195V268.225Z" fill="#111111" stroke="#111111" stroke-width="1.34"/>
<path d="M533.477 601.911C545.873 593.967 556.579 591.625 565.827 593.327C575.77 534.637 581.471 479.35 568.092 477.98C539.366 475.019 497.558 448.26 457.121 496.42C457.121 496.42 385.582 554.977 397.006 618.141C398.08 624.035 399.799 629.793 402.133 635.311C423.721 638.581 473.771 640.15 533.477 601.911Z" fill="#F9B132" stroke="#111111" stroke-width="1.34"/>
<path d="M503.237 481.715L495.106 473.163C491.791 476.323 415.976 549.298 423.754 622.859C427.489 622.727 431.488 622.495 435.554 622.097C428.052 554.138 502.464 482.455 503.237 481.715Z" fill="white" stroke="#111111" stroke-width="1.34"/>
<path d="M535.742 470.788C541.786 477.306 515.037 574.246 494.012 596.011C472.987 617.777 456.756 618.506 442.46 621.279C455.839 616.307 467.816 603.016 463.22 565.838C458.624 528.66 517.843 498.442 507.414 475.517C510.121 475.019 528.174 462.623 535.742 470.788Z" fill="#111111" stroke="#111111" stroke-width="1.34"/>
<path d="M397.802 622.174C397.802 622.174 459.22 628.803 485.814 604.121" stroke="#111111" stroke-width="1.34"/>
<path d="M537.51 732.482C537.51 732.482 554.436 660.667 565.827 593.326C556.579 591.625 545.873 593.967 533.477 601.911C473.815 640.15 423.721 638.581 402.133 635.311C429.754 701.082 537.51 732.482 537.51 732.482Z" fill="#FC9E7A"/>
<path d="M512.175 723.389C557.474 741.829 520.539 652.933 504.541 617.854C457.894 639.564 420.119 638.04 402.133 635.311C402.133 635.311 437.057 647.895 456.988 651.088C476.92 654.281 455.961 700.519 512.175 723.389Z" fill="#F97A53"/>
<path fill-rule="evenodd" clip-rule="evenodd" d="M537.51 732.482C537.51 732.482 554.436 660.667 565.827 593.326C556.579 591.625 545.873 593.967 533.477 601.911C473.815 640.15 423.721 638.581 402.133 635.311C429.754 701.082 537.51 732.482 537.51 732.482V732.482Z" stroke="#111111" stroke-width="1.34"/>
<path d="M597.326 654.767C600.851 617.943 613.147 578.223 639.708 537.731C647.575 479.693 568.147 461.319 568.147 461.319C568.147 461.319 476.213 471.263 479.87 624.284C480.271 643.542 482.866 662.691 487.604 681.361C500.95 685.703 543.829 694.674 597.326 654.767Z" fill="#F9B132"/>
<path fill-rule="evenodd" clip-rule="evenodd" d="M597.326 654.767C600.85 617.943 613.147 578.223 639.708 537.731C647.574 479.693 568.147 461.319 568.147 461.319C568.147 461.319 534.416 464.976 508.629 501.867C503.538 509.215 499.203 517.059 495.691 525.279C485.548 548.724 478.831 580.698 479.87 624.284C480.271 643.542 482.866 662.691 487.603 681.361C500.95 685.703 543.829 694.674 597.326 654.767V654.767Z" stroke="#111111" stroke-width="1.34"/>
<path d="M609.579 483.505L612.263 489.581L606.883 477.428C605.911 477.859 582.841 488.333 563.142 517.821C546.569 542.581 529.61 585.836 537.929 654.237C538.438 658.398 539.038 662.659 539.73 667.02C543.962 666.191 548.293 665.164 552.668 663.893C551.976 659.474 551.386 655.135 550.9 650.878C545.089 600.519 552.867 557.585 573.715 525.909C591.238 499.271 612.087 489.648 612.286 489.559L609.579 483.505Z" fill="white" stroke="#111111" stroke-width="1.34"/>
<path d="M524.947 483.284C524.34 483.836 523.743 484.389 523.135 484.974C541.719 489.327 593.293 503.182 596.917 523.71C601.337 548.79 569.296 538.614 577.372 565.838C585.449 593.061 558.347 605.612 565.827 645.067C568.898 661.23 583.504 652.69 599.724 636.979C605.148 605.281 617.401 571.793 639.708 537.731C640.906 529.548 640.195 521.198 637.631 513.336C620.981 496.023 588.056 482.223 524.947 483.284Z" fill="#111111" stroke="#111111" stroke-width="1.34"/>
<path d="M625.4 847.563C638.658 856.91 637.697 910.539 637.697 910.539C637.697 910.539 646.05 882.509 656.38 850.049C651.618 844.922 587.018 762.202 597.282 654.8C543.785 694.707 500.906 685.736 487.582 681.394C516.208 792.785 613.954 839.475 625.4 847.563Z" fill="#FC9E7A"/>
<path d="M565.827 685.382C593.967 673.461 555.607 726.085 585.604 766.412C615.6 806.739 650.215 845.961 643.641 867.229C640.194 878.344 638.537 893.856 637.741 906.12V910.539C637.741 910.539 646.094 882.509 656.424 850.049C651.662 844.922 587.062 762.202 597.326 654.8C547.818 691.735 507.414 686.841 491.106 682.421C490.626 682.36 490.157 682.23 489.714 682.035C489.714 682.035 535.3 700.762 565.827 685.382Z" fill="#F97A53"/>
<path fill-rule="evenodd" clip-rule="evenodd" d="M625.4 847.563C638.658 856.91 637.697 910.539 637.697 910.539C637.697 910.539 646.05 882.509 656.38 850.049C651.618 844.922 587.018 762.202 597.282 654.8C543.785 694.707 500.906 685.736 487.582 681.394C516.208 792.785 613.954 839.475 625.4 847.563V847.563Z" stroke="#111111" stroke-width="1.34"/>
<path d="M687.437 400.398C677.107 353.188 596.177 313.469 596.177 313.469C565.241 307.944 541.222 324.904 459.342 361.419C452.619 364.406 445.655 366.819 438.526 368.634C432.748 382.146 424.517 410.85 442.459 438.946C448.538 439.232 454.629 439.169 460.7 438.758C506.198 415.28 517.49 362.645 521.677 354.967C521.224 393.426 506.154 425.091 503.624 430.096L503.558 430.24L503.259 430.825C499.58 437.93 488.742 455.773 457.132 496.376C588.808 456.215 639.763 537.731 639.763 537.731C639.763 537.731 697.757 447.608 687.437 400.398Z" fill="#FC3F3F"/>
<path fill-rule="evenodd" clip-rule="evenodd" d="M687.437 400.398C677.107 353.188 596.177 313.469 596.177 313.469C565.241 307.944 541.222 324.904 459.342 361.419C452.619 364.406 445.655 366.819 438.526 368.634C432.748 382.146 424.517 410.85 442.459 438.946C484.377 440.824 505.104 426.704 505.104 426.704C505.104 426.704 502.497 438.14 457.121 496.42C588.808 456.215 639.763 537.731 639.763 537.731C639.763 537.731 697.757 447.608 687.437 400.398V400.398Z" stroke="#111111" stroke-width="1.34"/>
<path d="M503.624 430.129C506.154 425.091 521.224 393.426 521.677 355C517.49 362.734 506.209 415.313 460.7 438.791C490.388 436.759 505.104 426.738 505.104 426.738C504.72 427.913 504.224 429.049 503.624 430.129Z" fill="#111111" stroke="#111111" stroke-width="1.34"/>
<path d="M633.432 401.26C633.687 394.631 621.279 380.201 605.391 370.269C606.872 374.887 616.65 397.57 607.988 408.452C599.326 419.335 629.565 424.119 633.432 401.26Z" fill="#111111" stroke="#111111" stroke-width="1.34"/>
<path d="M410.496 457.508C418.63 457.508 425.224 433.358 425.224 403.569C425.224 373.779 418.63 349.63 410.496 349.63C402.362 349.63 395.769 373.779 395.769 403.569C395.769 433.358 402.362 457.508 410.496 457.508Z" fill="#111111" stroke="#111111" stroke-width="1.34"/>
<path d="M395.769 403.569C395.733 413.038 396.472 422.494 397.978 431.842C412.521 435.787 427.444 438.168 442.493 438.946C424.55 410.85 432.781 382.146 438.559 368.634C425.333 371.932 411.729 373.473 398.1 373.219L398.31 373.407C396.571 383.366 395.72 393.459 395.769 403.569Z" fill="#FC9E7A"/>
<path d="M397.945 431.842C412.488 435.787 427.411 438.168 442.46 438.946C424.517 410.85 432.748 382.146 438.526 368.634L437.908 368.788C433.079 375.185 425.997 388.444 425.036 411.955C425.036 423.522 410.397 408.165 395.78 405.414C395.822 414.266 396.546 423.101 397.945 431.842Z" fill="#F97A53"/>
<path fill-rule="evenodd" clip-rule="evenodd" d="M395.769 403.569C395.733 413.038 396.472 422.494 397.978 431.842C412.521 435.787 427.444 438.168 442.493 438.946C424.55 410.85 432.781 382.146 438.559 368.634C425.333 371.932 411.729 373.473 398.1 373.219L398.31 373.407C396.571 383.365 395.72 393.459 395.769 403.569V403.569Z" stroke="#111111" stroke-width="1.34"/>
<path fill-rule="evenodd" clip-rule="evenodd" d="M252.05 353.309C238.184 360.391 250.05 382.035 264.59 364.004C318.043 402.575 362.446 422.462 397.945 431.842C396.439 422.494 395.7 413.038 395.736 403.569C395.676 393.46 396.516 383.366 398.244 373.407L398.034 373.219C335.444 372.545 276.533 340.78 252.05 353.309V353.309Z" stroke="#111111" stroke-width="1.34"/>
<path d="M708.264 372.49C664.744 313.833 596.133 313.469 596.133 313.469C580.665 331.908 557.772 355.884 582.543 360.679C607.314 365.474 633.753 391.614 633.366 401.26C681.979 394.531 700.917 429.157 705.999 441.233C726.35 424.417 727.775 398.719 708.264 372.49Z" fill="#FC3F3F"/>
<path d="M633.433 401.26C523.511 420.042 529.046 454.37 537.51 459.529C545.973 464.689 551.177 458.06 548.227 446.989C627.135 469.219 680.996 462.015 706.065 441.233C700.983 429.157 682.024 394.531 633.433 401.26Z" fill="#FC9E7A"/>
<path fill-rule="evenodd" clip-rule="evenodd" d="M633.433 401.26C523.511 420.042 529.046 454.37 537.51 459.529C545.973 464.689 551.177 458.06 548.227 446.989C627.135 469.219 680.996 462.015 706.065 441.233C700.983 429.157 682.024 394.531 633.433 401.26Z" stroke="#111111" stroke-width="1.34"/>
<path d="M706.054 441.233C700.972 429.157 682.013 394.531 633.421 401.26L632.957 401.337C645.564 403.834 677.251 411.424 681.372 425.412C686.531 442.935 631.841 408.706 627.787 435.19C625.312 451.42 546.37 422.274 543.42 447.343C542.724 453.276 541.133 457.441 539.112 460.369C546.602 463.783 550.978 457.309 548.216 446.967C627.135 469.219 680.996 462.015 706.054 441.233Z" fill="#F97A53"/>
<path d="M605.391 370.269C621.246 380.212 633.687 394.653 633.433 401.26C523.511 420.042 529.046 454.37 537.51 459.529C545.973 464.689 551.177 458.06 548.227 446.989C690.973 487.195 751.828 431.135 708.308 372.49C664.788 313.844 596.177 313.469 596.177 313.469" stroke="#111111" stroke-width="1.34" stroke-linecap="round"/>
<path d="M578.997 262.159C578.997 262.159 549.729 296.012 578.588 304.906C577.24 320.816 572.39 350.348 572.39 350.348C572.39 350.348 601.116 325.456 603.568 311.966C606.021 298.476 603.27 260.679 603.27 260.679C603.27 260.679 586.841 253.619 578.997 262.159Z" fill="#FC9E7A"/>
<path d="M603.591 311.966C605.723 300.155 603.889 269.694 603.403 262.303C600.365 261.146 596.934 261.824 594.564 264.049C594.564 264.049 606.982 269.054 602.795 277.859C598.608 286.665 597.635 296.498 600.342 301.426C602.751 305.845 590.542 328.207 575.66 328.914C574.025 340.383 572.345 350.348 572.345 350.348C572.345 350.348 601.16 325.434 603.591 311.966Z" fill="#F97A53"/>
<path fill-rule="evenodd" clip-rule="evenodd" d="M578.997 262.159C578.997 262.159 549.729 296.012 578.588 304.906C577.24 320.816 572.39 350.348 572.39 350.348C572.39 350.348 601.116 325.456 603.568 311.966C606.021 298.476 603.27 260.679 603.27 260.679C603.27 260.679 586.841 253.619 578.997 262.159Z" stroke="#111111" stroke-width="1.34"/>
<path d="M576.235 243.355C541.266 242.593 545.299 220.551 551.729 206.177C546.706 209.539 542.482 213.963 539.355 219.137C523.18 245.299 559.187 268.855 579.693 263.507C600.199 258.16 587.106 275.506 590.476 283.063C590.476 283.063 597.359 267.419 599.779 269.805C602.199 272.191 593.448 287.328 605.712 286.256C617.224 285.24 611.424 270.247 616.098 267.706C613.601 266.048 608.993 265.551 602.453 264.734C590.642 263.308 628.273 244.493 576.235 243.355Z" fill="#BC3C1E"/>
<path fill-rule="evenodd" clip-rule="evenodd" d="M590.476 283.063C590.476 283.063 597.359 267.418 599.779 269.805C602.199 272.191 593.448 287.328 605.712 286.256C617.976 285.184 610.573 268.181 617.18 267.374C623.787 266.568 640.714 252.072 633.09 235.82C625.268 219.137 610.584 235.82 600.994 218.418C588.322 195.427 555.541 192.93 539.355 219.092C523.169 245.255 559.187 268.811 579.693 263.463C600.199 258.116 587.106 275.506 590.476 283.063V283.063Z" stroke="#111111" stroke-width="1.34"/>
<path d="M594.586 299.647C594.586 299.647 589.935 307.381 578.61 304.906L594.586 299.647Z" fill="#FC9E7A"/>
<path d="M594.586 299.647C594.586 299.647 589.935 307.381 578.61 304.906" stroke="#111111" stroke-width="1.34" stroke-linecap="round"/>
<path d="M578.61 304.906C589.935 307.337 594.586 299.647 594.586 299.647C594.332 301.669 592.564 312.485 577.781 313.469C578.389 307.292 578.61 304.906 578.61 304.906Z" fill="#111111" stroke="#111111" stroke-width="1.34"/>
<path d="M576.235 354.635C574.533 355.596 572.821 356.513 571.097 357.364" stroke="#111111" stroke-width="1.34" stroke-linecap="round"/>
<path d="M584.289 349.63C582.772 350.647 581.232 351.637 579.671 352.602" stroke="#111111" stroke-width="1.34" stroke-linecap="round"/>
<path d="M603.038 314.043C603.038 314.043 609.667 313.833 609.822 321.777C609.922 325.743 605.182 332.174 597.967 338.858C594.635 341.911 591.126 344.767 587.46 347.409" stroke="#111111" stroke-width="1.34" stroke-linecap="round"/>
<path d="M563.529 348.636C563.44 350.625 563.385 352.735 563.363 354.967" stroke="#111111" stroke-width="1.34" stroke-linecap="round"/>
<path d="M576.422 313.005C576.422 313.005 566.236 313.524 563.838 343.299" stroke="#111111" stroke-width="1.34" stroke-linecap="round"/>
<path d="M503.259 430.859C503.259 430.859 521.18 396.951 521.677 354.967" stroke="#111111" stroke-width="1.34" stroke-linecap="round"/>
<path d="M503.557 430.273L503.248 430.87L503.557 430.273Z" fill="#FC3F3F" stroke="#111111" stroke-linecap="round"/>
<path d="M354.955 283.185C357.128 283.185 358.889 281.424 358.889 279.251C358.889 277.079 357.128 275.318 354.955 275.318C352.783 275.318 351.022 277.079 351.022 279.251C351.022 281.424 352.783 283.185 354.955 283.185Z" fill="white" stroke="#111111"/>
<path d="M369.219 283.185C371.391 283.185 373.152 281.424 373.152 279.251C373.152 277.079 371.391 275.318 369.219 275.318C367.047 275.318 365.286 277.079 365.286 279.251C365.286 281.424 367.047 283.185 369.219 283.185Z" fill="white" stroke="#111111"/>
<path d="M383.483 283.185C385.655 283.185 387.416 281.424 387.416 279.251C387.416 277.079 385.655 275.318 383.483 275.318C381.31 275.318 379.549 277.079 379.549 279.251C379.549 281.424 381.31 283.185 383.483 283.185Z" fill="white" stroke="#111111"/>
<path d="M503.259 279.251H488.719H503.259Z" fill="white"/>
<path d="M503.259 279.251H488.719" stroke="white"/>
<path d="M275.948 201.835H479.759V223.887H275.948V201.835Z" fill="#111111" stroke="#111111"/>
<path d="M288.709 216.794C290.881 216.794 292.642 215.033 292.642 212.861C292.642 210.689 290.881 208.928 288.709 208.928C286.537 208.928 284.776 210.689 284.776 212.861C284.776 215.033 286.537 216.794 288.709 216.794Z" fill="white" stroke="#111111"/>
<path d="M302.961 216.794C305.134 216.794 306.895 215.033 306.895 212.861C306.895 210.689 305.134 208.928 302.961 208.928C300.789 208.928 299.028 210.689 299.028 212.861C299.028 215.033 300.789 216.794 302.961 216.794Z" fill="white" stroke="#111111"/>
<path d="M317.225 216.794C319.397 216.794 321.158 215.033 321.158 212.861C321.158 210.689 319.397 208.928 317.225 208.928C315.053 208.928 313.292 210.689 313.292 212.861C313.292 215.033 315.053 216.794 317.225 216.794Z" fill="white" stroke="#111111"/>
<path d="M467.871 212.861H453.331H467.871Z" fill="white"/>
<path d="M467.871 212.861H453.331" stroke="white"/>
<path d="M164.568 147.73H431.533V169.783H164.568L164.568 147.73Z" fill="#111111" stroke="#111111"/>
<path d="M177.318 162.701C179.49 162.701 181.251 160.94 181.251 158.768C181.251 156.595 179.49 154.835 177.318 154.835C175.146 154.835 173.385 156.595 173.385 158.768C173.385 160.94 175.146 162.701 177.318 162.701Z" fill="white" stroke="#111111"/>
<path d="M191.582 162.701C193.754 162.701 195.515 160.94 195.515 158.768C195.515 156.595 193.754 154.835 191.582 154.835C189.409 154.835 187.648 156.595 187.648 158.768C187.648 160.94 189.409 162.701 191.582 162.701Z" fill="white" stroke="#111111"/>
<path d="M205.845 162.701C208.018 162.701 209.779 160.94 209.779 158.768C209.779 156.595 208.018 154.835 205.845 154.835C203.673 154.835 201.912 156.595 201.912 158.768C201.912 160.94 203.673 162.701 205.845 162.701Z" fill="white" stroke="#111111"/>
<path d="M417.755 158.768H403.226H417.755Z" fill="white"/>
<path d="M417.755 158.768H403.226" stroke="white"/>
<path d="M413.966 307.635H495.989H413.966Z" fill="white"/>
<path d="M413.966 307.635H495.989" stroke="#111111"/>
<path d="M449.564 322.816H495.989H449.564Z" fill="white"/>
<path d="M449.564 322.816H495.989" stroke="#111111"/>
<path d="M439.731 238.715H475.119H439.731Z" fill="white"/>
<path d="M439.731 238.715H475.119" stroke="#111111"/>
<path d="M419.114 248.062H475.119H419.114Z" fill="white"/>
<path d="M419.114 248.062H475.119" stroke="#111111"/>
<path d="M464.137 338.062H495.989H464.137Z" fill="white"/>
<path d="M464.137 338.062H495.989" stroke="#111111"/>
<path d="M413.966 322.816H436.56H413.966Z" fill="white"/>
<path d="M413.966 322.816H436.56" stroke="#111111"/>
<path d="M371.573 260.635C375.045 260.635 377.859 257.82 377.859 254.348C377.859 250.876 375.045 248.062 371.573 248.062C368.101 248.062 365.286 250.876 365.286 254.348C365.286 257.82 368.101 260.635 371.573 260.635Z" fill="white" stroke="#111111"/>
<path d="M452.701 483.505H379.538" stroke="#111111"/>
<path d="M452.701 495.68H419.114" stroke="#111111"/>
<path d="M349.686 310.905H393.46V342.449H349.686V310.905Z" fill="#111111" stroke="#111111"/>
<path d="M354.956 306.508H398.73V338.051H354.956V306.508Z" fill="white" stroke="#111111"/>
<path d="M365.286 186.588H419.114" stroke="#111111"/>
<path d="M195.924 319.368H249.763" stroke="#111111"/>
<path d="M190.455 446.249H254.624" stroke="#111111"/>
<path d="M190.455 430.859H222.849" stroke="#111111"/>
<path d="M190.455 461.319H254.624" stroke="#111111"/>
<path d="M190.455 476.378H254.624" stroke="#111111"/>
<path d="M190.455 491.437H254.624" stroke="#111111"/>
<path d="M190.455 506.497H254.624" stroke="#111111"/>
<path d="M190.455 521.556H254.624" stroke="#111111"/>
<path d="M398.719 193.968H419.114" stroke="#111111"/>
<path d="M484.609 668.092C502.91 670.891 521.556 670.517 539.73 666.987L484.609 668.092Z" fill="#F9B132"/>
<path d="M484.609 668.092C502.91 670.891 521.556 670.517 539.73 666.987" stroke="#111111"/>
<path d="M552.668 663.904C570.013 659.023 586.02 650.262 599.48 638.283" stroke="#111111"/>
<path d="M174.954 619.611H254.624V663.904H174.954V619.611Z" fill="white" stroke="#111111"/>
<path d="M197.36 619.611H254.624V663.904H197.36L197.36 619.611Z" fill="#111111" stroke="#111111"/>
<path fill-rule="evenodd" clip-rule="evenodd" d="M778.102 429.002L792.342 424.348C799.841 421.896 807.908 425.989 810.359 433.488C812.81 440.987 808.718 449.054 801.218 451.505L786.978 456.16L778.102 429.002Z" stroke="#111111"/>
<path d="M781.007 415.634V448.127C781.014 457.485 774.747 465.686 765.716 468.136C767.475 468.625 769.292 468.874 771.119 468.876C782.578 468.876 791.868 459.587 791.868 448.127V415.634H781.007Z" fill="#111111" stroke="#111111"/>
<path d="M781.007 448.127V415.634H750.348V448.127C750.35 457.507 756.654 465.715 765.716 468.136C774.747 465.686 781.014 457.485 781.007 448.127Z" fill="#FC56BD"/>
<path fill-rule="evenodd" clip-rule="evenodd" d="M750.347 415.634H791.835V448.138C791.835 459.598 782.545 468.887 771.085 468.887C759.626 468.887 750.336 459.598 750.336 448.138V415.634H750.347Z" stroke="#111111" stroke-width="1.34"/>
<path d="M789.039 417.777C790.807 416.904 791.835 415.888 791.835 414.805C791.835 411.491 782.543 408.872 771.086 408.872C759.628 408.872 750.348 411.524 750.348 414.805C750.348 415.91 751.375 416.904 753.143 417.777C756.734 415.998 763.418 414.805 771.086 414.805C778.753 414.805 785.449 416.032 789.039 417.777Z" fill="white" stroke="#111111" stroke-width="1.34"/>
<path d="M771.085 420.749C780.995 420.749 789.028 419.419 789.028 417.777C789.028 416.136 780.995 414.805 771.085 414.805C761.176 414.805 753.143 416.136 753.143 417.777C753.143 419.419 761.176 420.749 771.085 420.749Z" fill="#E5592E" stroke="#111111" stroke-width="1.34"/>
<path d="M783.095 261.187C800.463 273.893 817.158 297.702 806.573 311.204C792.74 328.881 762.313 327.401 786.752 348.636C803.325 363.054 783.183 364.943 769.384 374.964C769.196 375.329 769.019 375.694 768.787 376.069C756.336 396.586 772.013 404.21 772.013 404.21C769.24 371.263 824.56 377.229 800.132 355.983C775.704 334.737 806.12 336.195 819.953 318.551C833.332 301.492 803.148 267.982 783.095 261.187Z" fill="#F9AC30"/>
<path d="M786.708 348.636C762.269 327.401 792.696 328.848 806.529 311.204C817.113 297.702 800.419 273.893 783.051 261.187C782.377 260.966 781.714 260.756 781.062 260.591C761.109 255.53 742.923 273.042 771.969 296.752C801.016 320.462 751.684 306.232 746.149 331.588C740.724 356.469 779.648 355.618 769.351 374.964C783.183 364.943 803.281 363.054 786.708 348.636Z" fill="#F9C764"/>
<path fill-rule="evenodd" clip-rule="evenodd" d="M772.013 404.21C772.013 404.21 756.336 396.586 768.787 376.069C781.239 355.552 740.658 356.944 746.193 331.588C751.728 306.232 801.071 320.451 772.013 296.708C742.956 272.965 761.153 255.486 781.106 260.546C801.06 265.607 833.785 300.862 819.953 318.507C806.12 336.151 775.659 334.748 800.132 355.983C824.604 377.218 769.24 371.263 772.013 404.21V404.21Z" stroke="#111111" stroke-width="1.34"/>
<path d="M582.19 277.97C584.624 277.97 586.598 277.228 586.598 276.313C586.598 275.397 584.624 274.655 582.19 274.655C579.755 274.655 577.781 275.397 577.781 276.313C577.781 277.228 579.755 277.97 582.19 277.97Z" fill="white" stroke="#161515" stroke-width="1.34"/>
<path d="M580.61 274.766C578.952 275.009 577.781 275.605 577.781 276.313C577.781 277.02 578.952 277.616 580.61 277.859C581.527 277.616 582.19 277.02 582.19 276.313C582.19 275.605 581.527 275.009 580.61 274.766Z" fill="#161515"/>
<path d="M566.567 277.97C569.002 277.97 570.975 277.228 570.975 276.313C570.975 275.397 569.002 274.655 566.567 274.655C564.132 274.655 562.159 275.397 562.159 276.313C562.159 277.228 564.132 277.97 566.567 277.97Z" fill="white" stroke="#161515" stroke-width="1.34"/>
<path d="M564.987 274.766C563.33 275.009 562.148 275.605 562.148 276.313C562.148 277.02 563.33 277.616 564.987 277.859C565.904 277.616 566.567 277.02 566.567 276.313C566.567 275.605 565.904 275.009 564.987 274.766Z" fill="#161515"/>
<path d="M574.511 276.312C573.478 279.081 572.089 281.703 570.379 284.113C570.107 284.408 570.017 284.828 570.143 285.209C570.269 285.59 570.592 285.872 570.986 285.947C572.887 286.234 575.096 286.356 575.096 286.356" stroke="#161515" stroke-linecap="round"/>
<path d="M569.528 293.548C569.528 293.548 574.743 296.321 582.19 292.443" stroke="#161515" stroke-linecap="round"/>
<path d="M331.842 832.393C331.842 832.393 340.195 806.33 364.303 795.503C388.41 784.675 359.806 748.315 386.643 742.393C413.479 736.471 372.655 715.6 392.09 710.551C411.524 705.502 428.008 730.593 416.076 743.862C404.143 757.131 390.786 771.008 404.839 777.847C418.893 784.686 403.127 847 372.158 857.396C341.189 867.793 296.918 898.784 331.842 832.393Z" fill="#111111" stroke="#111111"/>
<path d="M582.19 289.306C581.521 291.349 582.465 293.571 584.399 294.509" stroke="#161515" stroke-linecap="round"/>
<path d="M417.291 845.176C417.291 845.176 421.224 802.949 449.078 808.783C495.989 818.616 442.448 853.043 439.731 878.388C437.963 894.862 479.24 876.355 478.08 912.871C448.393 912.992 306.563 912.871 306.563 912.871C306.563 912.871 309.469 843.21 417.291 845.176Z" fill="#111111" stroke="#111111"/>
<path d="M334.671 860.6C334.671 860.6 275.009 844.259 264.689 873.737C254.37 903.214 212.066 880.454 208.132 912.981C258.292 913.047 323.036 912.981 323.036 912.981C323.036 912.981 385.471 878.488 334.671 860.6Z" fill="#111111" stroke="#111111"/>
<path d="M633.134 235.864C625.312 219.181 610.628 235.864 601.038 218.463C596.473 209.935 588.515 203.735 579.13 201.395C569.745 199.054 559.808 200.791 551.773 206.177C545.354 220.54 541.31 242.637 576.279 243.355C628.317 244.46 590.642 263.308 602.497 264.778C609.037 265.596 613.645 266.093 616.141 267.75C616.487 267.573 616.861 267.461 617.246 267.419C623.787 266.612 640.713 252.116 633.134 235.864Z" fill="#E5592E"/>
<path d="M358.392 858.943C401.481 857.473 436.206 825.941 402.586 774.234C393.15 776.864 386.333 787.05 390.808 804.419C400.177 840.757 370.921 838.128 338.007 850.878C297.747 866.5 329.058 901.701 329.058 901.701C329.301 900.739 329.555 899.833 329.809 898.927C330.063 898.021 315.115 860.423 358.392 858.943Z" fill="#A1E23B" stroke="#111111" stroke-width="1.34"/>
<path d="M265.22 845.221C265.22 845.221 288.112 811.578 261.331 768.854C234.549 726.129 263.01 690.177 276.865 707.711C290.72 725.245 254.89 741.376 283.074 751.706C311.259 762.037 349.476 792.221 322.849 822.792C296.222 853.363 283.649 872.533 265.22 845.221Z" fill="#111111" stroke="#111111" stroke-width="1.34"/>
<path d="M225.987 796.364C276.39 829.189 277.859 805.954 302.575 853.905C304.785 858.17 306.862 862.059 308.839 865.649C307.988 859.807 308.285 853.855 309.712 848.126C317.678 815.655 310.198 798.795 262.491 790.929C215.668 783.195 224.76 732.515 210.685 730.648C202.144 741.752 186.345 770.544 225.987 796.364Z" fill="#7FD335" stroke="#111111" stroke-width="1.34"/>
<path d="M233.975 842.724C295.095 859.926 290.035 901.734 331.842 903.7C331.842 903.7 312.165 888.597 308.839 865.649C306.862 862.059 304.774 858.17 302.575 853.905C277.859 805.954 276.39 829.189 225.987 796.364C186.345 770.544 202.144 741.752 210.685 730.648C210.416 730.631 210.147 730.631 209.878 730.648C194.631 730.593 142.493 817.147 233.975 842.724Z" fill="#A1E23B" stroke="#111111" stroke-width="1.34"/>
<path d="M398.188 870.699C436.858 864.489 441.576 823.334 431.544 793.216C426.318 777.494 412.894 771.362 402.586 774.234C436.206 825.941 401.481 857.474 358.392 858.943C315.115 860.423 329.809 898.905 329.809 898.905C339.654 864.324 360.502 876.753 398.188 870.699Z" fill="#7FD335" stroke="#111111" stroke-width="1.34"/>
<path d="M312.662 855.01C320.529 831.41 364.27 798.453 341.664 770.92C319.059 743.387 362.325 721.202 338.228 698.132C332.578 692.603 326.648 687.367 320.462 682.444C317.148 686.531 317.899 693.492 326.97 703.159C350.083 727.864 275.329 742.393 302.928 764.534C330.527 786.675 326.97 805.347 303.359 840.768C279.749 876.19 331.886 903.745 331.886 903.745C331.533 903.38 331.19 902.993 330.848 902.64C330.221 902.45 329.63 902.155 329.102 901.767C329.102 901.767 304.785 878.62 312.662 855.01Z" fill="#A1E23B" stroke="#111111" stroke-width="1.34"/>
<path d="M356.425 831.454C395.769 806.374 390.366 778.83 375.605 776.367C360.844 773.903 343.145 761.12 355.939 744.403C368.733 727.687 367.739 698.177 351.022 684.852C340.858 676.754 325.611 676.168 320.418 682.488C326.619 687.41 332.563 692.646 338.228 698.177C362.325 721.29 319.048 743.42 341.664 770.964C364.281 798.508 320.529 831.454 312.662 855.01C304.796 878.565 329.058 901.689 329.058 901.689C329.586 902.078 330.176 902.373 330.804 902.562C316.651 886.487 317.998 855.905 356.425 831.454Z" fill="#7FD335" stroke="#111111" stroke-width="1.34"/>
<path d="M273.142 912.926H400.387C400.387 912.926 384.533 877.571 365.032 887.106C345.531 896.64 331.102 897.436 314.872 878.443C298.642 859.451 260.646 868.29 275.031 885.625C289.416 902.96 247.41 887.47 244.427 912.926H273.142Z" fill="#61AA1B" stroke="#111111" stroke-width="1.34"/>
<path d="M722.119 878.444C722.119 878.444 766.821 859.926 740.426 827.477C714.031 795.028 788.034 773.339 799.712 817.147C811.39 860.954 870.422 813.048 886.155 837.962C901.888 862.876 877.317 889.492 920.582 884.542C963.848 879.593 952.049 913.003 952.049 913.003H722.119V878.444Z" fill="#111111" stroke="#111111" stroke-width="1.34"/>
<path d="M722.119 913.003H896.917C896.416 898.163 887.691 884.837 874.289 878.444C851.297 867.207 877.184 830.703 849.673 808.429C822.163 786.156 792.652 802.905 799.535 826.494C806.418 850.082 785.769 860.6 753.132 837.962C723.124 817.091 687.338 861.948 706.054 884.542C724.77 907.136 671.66 889.359 670.699 913.003C701.182 912.108 722.119 913.003 722.119 913.003Z" fill="#7FD335"/>
<path d="M874.289 878.444C851.297 867.207 877.184 830.703 849.673 808.429C840.746 801.204 831.609 798.099 823.577 797.989C832.747 810.053 838.47 828.383 823.268 852.767C793.635 900.275 744.426 837.929 750.348 878.444C755.463 913.478 725.941 898.331 711.523 912.694C718.285 912.815 722.119 912.981 722.119 912.981H896.917C896.408 898.149 887.685 884.833 874.289 878.444Z" fill="#61AA1B"/>
<path fill-rule="evenodd" clip-rule="evenodd" d="M722.119 913.003H896.917C896.417 898.163 887.692 884.837 874.29 878.444C851.298 867.207 877.184 830.703 849.674 808.429C822.163 786.156 792.652 802.905 799.536 826.494C806.419 850.082 785.769 860.6 753.132 837.962C723.124 817.091 687.338 861.948 706.054 884.542C724.77 907.136 671.66 889.359 670.699 913.003C701.182 912.108 722.119 913.003 722.119 913.003Z" stroke="#111111"/>
<path d="M846.514 830.117C846.514 846.867 838.647 871.196 853.64 878.444C872.82 887.713 867.13 905.181 867.13 905.181" stroke="#111111" stroke-linecap="round"/>
<path d="M844.05 800.596C845.094 802.34 845.782 804.274 846.072 806.286" stroke="#111111" stroke-linecap="round"/>
<path d="M833.012 792.376C835.216 793.162 837.304 794.24 839.221 795.58" stroke="#111111" stroke-linecap="round"/>
<path d="M711.126 846.127C710.555 849.275 710.351 852.478 710.518 855.673" stroke="#111111" stroke-linecap="round"/>
<path d="M725.643 824.328C720.432 827.489 716.299 832.154 713.788 837.708" stroke="#111111" stroke-linecap="round"/>
<path d="M623.754 689.084C624.866 693.459 626.214 697.926 627.798 702.485" stroke="white"/>
<path d="M654.955 561.131C654.955 561.131 608.551 605.557 621.268 677.582" stroke="white"/>
<path d="M381.748 604.121C381.748 604.121 379.793 633.311 398.719 653.751" stroke="white"/>
<path d="M774.046 613.346H803.734C819.428 613.346 832.15 626.069 832.15 641.763C832.132 657.444 819.415 670.147 803.734 670.147H774.046V613.346V613.346Z" fill="white" stroke="#111111"/>
<path d="M774.046 669.605C789.582 669.605 802.176 657.011 802.176 641.476C802.176 625.94 789.582 613.346 774.046 613.346C758.511 613.346 745.917 625.94 745.917 641.476C745.917 657.011 758.511 669.605 774.046 669.605Z" fill="#111111" stroke="#111111"/>
<path fill-rule="evenodd" clip-rule="evenodd" d="M638.515 199.658C650.896 199.658 660.932 189.622 660.932 177.241C660.932 164.86 650.896 154.823 638.515 154.823C626.134 154.823 616.097 164.86 616.097 177.241C616.097 189.622 626.134 199.658 638.515 199.658Z" stroke="white"/>
<path d="M148.393 370.269V473.163" stroke="white"/>
<path d="M148.393 330.726V351.1" stroke="white"/>
<path d="M989.37 912.926H65.7727" stroke="#111111"/>
</svg>
